<svg xmlns="http://www.w3.org/2000/svg" viewBox="0 0 100 100">
  <!-- Red squircle background - matching intersnack brand color -->
  <rect x="2" y="2" width="96" height="96" rx="22" ry="22" fill="#C0392B"/>
  
  <!-- White butterfly / flower symbol (Intersnack icon) -->
  <!-- Left wing top -->
  <path d="M50 50 C50 50 30 48 24 36 C20 28 28 20 36 26 C42 31 46 42 50 50Z" fill="white"/>
  <!-- Left wing bottom -->
  <path d="M50 50 C50 50 28 54 24 66 C20 74 30 80 37 73 C43 67 47 58 50 50Z" fill="white"/>
  <!-- Right wing top -->
  <path d="M50 50 C50 50 70 48 76 36 C80 28 72 20 64 26 C58 31 54 42 50 50Z" fill="white"/>
  <!-- Right wing bottom -->
  <path d="M50 50 C50 50 72 54 76 66 C80 74 70 80 63 73 C57 67 53 58 50 50Z" fill="white"/>
  
  <!-- Small center dot -->
  <circle cx="50" cy="50" r="3.5" fill="#C0392B"/>
</svg>
