<?xml version="1.0" encoding="UTF-8"?>
<svg xmlns="http://www.w3.org/2000/svg" id="Ebene_1" data-name="Ebene 1" width="2400" height="1800" viewBox="0 0 2400 1800">
  <defs>
    <style>.cls-1{fill:#fff;}</style>
  </defs>
  <g id="acting_entrepreneurially" data-name="acting entrepreneurially">
    <path class="cls-1" d="M2267.2687,963.4418a65.9029,65.9029,0,0,0-3.0691-12.7876c-.5115-2.046-1.5345-4.6035-2.046-7.1611-1.0231-2.5575-2.046-4.6035-3.0691-7.161-2.0459-13.2992-9.207-29.1559-18.4142-46.0355l-1.0231-2.046s-3.5806-5.6266-5.115-7.6725c-11.7646-18.4143-29.1559-44.5011-52.1736-77.7489s-254.7295-360.1-254.7295-360.1c-4.092-5.1151-9.2071-9.2071-14.3221-13.2992a88.7566,88.7566,0,0,0-77.7489-13.2992,93.8537,93.8537,0,0,0-36.3169,21.4833c-7.161,7.1611-908.9447,928.8937-908.9447,928.8937h-.5116v-.5114h0l-193.86-237.85a44.1617,44.1617,0,0,0-7.161-6.6495,73.208,73.208,0,0,0-7.6726-5.6266,81.6056,81.6056,0,0,0-35.8054-12.7877,84.2346,84.2346,0,0,0-68.5416,23.5293l-3.0691,3.5806c-1.023,1.0231-2.046,2.5575-2.5575,3.0691,0,0-23.5293,28.1328-28.6443,34.7823-86.9559,104.8587-162.1472,199.4871-224.5508,278.2588C286.72,1485.6891,167.028,1635.56,167.028,1635.56c-23.0177,30.1789-36.8283,57.8-32.2248,64.45,1.5345,2.0462,6.65-3.5806,10.23-7.1612,6.65-7.1612,110.9966-123.2726,214.8322-239.896,0,.5113.5115,1.5344.5115,2.0461a29.3237,29.3237,0,0,0,2.046,7.1612c1.5345,2.5575,2.5575,5.1151,4.0921,7.6726a35.2152,35.2152,0,0,0,5.6265,6.6495l6.1381,6.1381c2.0459,1.5345,4.092,4.092,6.6495,5.1151,9.2071,6.6495,18.9257,10.7414,29.1558,13.8107,20.46,6.1381,42.455,7.1612,65.9842,3.5806a165.2122,165.2122,0,0,0,36.8283-10.23,226.9973,226.9973,0,0,0,36.3169-19.4372c24.0408-15.3451,47.0585-35.8053,74.68-51.6619q5.3708-3.0692,10.7417-6.1381c3.5805-1.5345,7.161-3.5806,10.23-4.6037,1.5345-.5114,7.6725-3.0689,7.6725-3.0689l1.5346-.5114a32.6866,32.6866,0,0,1,3.5805-1.023c1.023,0,2.5575-.5114,4.092-.5114,5.1151-.5114,11.2531.5114,17.3912,1.5344a121.1828,121.1828,0,0,1,18.4142,4.6037c24.5523,7.1612,47.0585,16.3682,68.5417,22.5064s42.9664,10.7414,64.9611,9.7187c11.2531-.5114,22.5062-2.0462,33.2479-5.6264a95.3471,95.3471,0,0,0,30.69-16.88c2.046-2.5575,5.115-5.115,8.1841-9.207a99.7332,99.7332,0,0,0,9.7186-13.299c1.5345-1.5345,3.5805-4.6037.5115-6.6495a1.5843,1.5843,0,0,0-1.023-.5114c38.8744-38.8743,163.17-163.17,308.4376-307.9262v1.0231c0,3.5806,1.0231,6.6495,1.0231,10.23.5115,3.5806,1.5344,6.1381,2.0459,9.207a43.2056,43.2056,0,0,0,2.5576,8.6957,50.2791,50.2791,0,0,1,2.5575,8.1841q1.5347,3.8363,3.0691,7.6726c2.0459,5.115,4.6035,9.207,6.6495,13.8107a167.7433,167.7433,0,0,0,28.1328,34.7823,170.1423,170.1423,0,0,0,36.3169,26.5981,153.2887,153.2887,0,0,0,20.9717,9.2071c7.161,2.5575,14.3221,4.092,21.9947,6.1381,7.161,2.0461,15.3451,2.0461,22.5062,3.0689,7.6725.5114,15.3451.5114,23.0177.5114,31.2018-1.0231,61.8922-10.7415,90.5365-24.5522s55.754-32.7363,82.3523-53.7081,52.685-44.501,79.7949-68.5416c27.11-23.5293,56.2656-47.57,89.5134-62.9151a145.5529,145.5529,0,0,1,52.1736-13.2992,120.6931,120.6931,0,0,1,27.11,1.5345c8.6957,1.5344,17.3912,4.092,24.5522,8.1841.5115.5115,1.0231.5115,1.5345,1.0231a172.22,172.22,0,0,0-49.6161,53.708,147.4164,147.4164,0,0,0-16.88,42.4549c-3.5806,15.8567-4.6035,30.69-4.6035,46.547s1.5344,31.7134,7.161,48.593a99.6748,99.6748,0,0,0,12.7876,25.5753l4.6035,6.1381c2.046,2.0461,4.092,4.092,5.6266,5.6264,3.5806,4.092,8.6957,7.1612,13.8107,10.23a69.8623,69.8623,0,0,0,15.8567,6.6495c2.5576.5114,5.6266,1.0231,8.1841,1.5345a51.0168,51.0168,0,0,0,8.1842,1.023h8.1841a44.0174,44.0174,0,0,0,8.1841-.5113c2.5575-.5114,5.6266-1.0231,8.1841-1.5345a50.26,50.26,0,0,0,8.1841-2.5575,71.3043,71.3043,0,0,0,28.6443-19.4371,92.9815,92.9815,0,0,0,17.3912-26.0867c8.1841-17.3913,11.7645-34.7823,14.3221-51.662a408.2675,408.2675,0,0,0,2.5575-49.6161,98.5611,98.5611,0,0,0-.5115-12.2761l-1.0231-12.7876a110.7978,110.7978,0,0,0-2.046-12.7877c-1.0231-4.0919-1.5345-8.6956-2.5575-12.7876a170.1415,170.1415,0,0,0-15.8567-40.4089,106.33,106.33,0,0,1,30.69,4.6035c29.6672,7.6726,57.8,21.9947,88.49,31.7134,29.6673,9.7186,59.3347,17.3912,90.5365,19.9487a181.7664,181.7664,0,0,0,47.0586-1.0231c15.8567-2.5575,31.7133-7.161,47.0585-16.88a85.6927,85.6927,0,0,0,32.7363-40.92C2267.2687,998.7356,2269.3146,980.833,2267.2687,963.4418ZM866.2558,1403.8477a93.29,93.29,0,0,1-21.9947,5.115c-9.2071,1.0231-19.4372,0-31.2019-2.0461s-24.5522-6.1382-38.8744-11.2532-29.1558-11.2532-46.0355-17.3913a282.5968,282.5968,0,0,0-27.11-8.6957c-9.7186-2.5575-19.9487-5.115-32.2249-5.115a55.6053,55.6053,0,0,0-9.2071.5114c-3.0691.5114-6.65,1.023-9.7186,1.5344l-5.115,1.5345a48.3133,48.3133,0,0,0-4.6035,1.5344l-7.6726,3.0689c-5.1151,2.0462-9.7186,4.6037-14.8336,7.1612-4.6035,2.5576-9.2071,5.1151-13.8107,8.184-17.9026,11.2532-33.7593,24.0408-48.0814,35.294-14.8336,11.2532-28.1328,21.4833-41.9434,29.1558s-27.11,13.299-40.4089,16.3683a143.7048,143.7048,0,0,1-38.3629,3.0689,84.8,84.8,0,0,1-30.1788-6.6495,54.2821,54.2821,0,0,1-17.3911-12.2763c-4.0921-6.1381-3.58-4.6037-4.6035-5.6264a1.584,1.584,0,0,1-.5116-1.0231c-1.5345-2.5575-3.5805-5.115-5.115-7.6726-1.023-1.5344-2.0461-2.5575-3.069-4.0919,64.9611-73.1452,210.2286-242.965,236.3154-272.1209,3.58-4.092,8.6956-7.161,13.8106-9.207a37.819,37.819,0,0,1,16.88-1.0231,33.548,33.548,0,0,1,15.3452,7.6726q1.5343,1.5347,3.069,3.0691S816.64,1342.4664,868.8136,1401.8009C868.8134,1402.8249,867.79,1403.3363,866.2558,1403.8477Zm1019.9415-251.149a125.883,125.883,0,0,1-8.1841,31.2019c-4.092,8.6955-8.6957,13.8105-12.2761,16.3681a23.3516,23.3516,0,0,1-7.1611,2.5575c-1.5344.5114-3.069,0-4.6035,0h-2.5575c-.5116,0-1.0231-.5114-2.046-.5114-5.1151-.5114-8.6957-2.0461-13.8107-6.65s-9.7186-11.7646-13.2992-20.46c-7.6726-16.88-10.7416-37.8514-9.207-55.2425s9.7186-34.2709,19.4371-48.593a132.4857,132.4857,0,0,1,35.8054-35.8054c.5115-.5115,1.0231-.5115,1.5344-1.023a95.59,95.59,0,0,1,8.6957,15.8566,110.3723,110.3723,0,0,1,8.1841,29.6673,84.6524,84.6524,0,0,1,1.5345,16.3682c.5115,5.6266.5115,12.2761.5115,17.9027A295.4613,295.4613,0,0,1,1886.1973,1152.6987Zm344.7545-137.5948a62.5235,62.5235,0,0,1-23.0178,21.4832c-10.23,5.6266-24.0408,9.2071-38.8744,10.7417-30.1788,2.5575-65.9841-4.092-103.8355-16.3682-9.7186-3.0691-18.9258-6.1382-28.6443-10.23-9.7186-3.5806-19.4372-8.1842-30.1788-12.2761-20.9717-8.6957-43.4779-17.3912-70.0763-20.9718a110.4611,110.4611,0,0,0-34.2709.5115,110.7905,110.7905,0,0,0-22.5062-18.4142,137.9756,137.9756,0,0,0-50.639-18.4142,168.0694,168.0694,0,0,0-50.639,0,175.2433,175.2433,0,0,0-46.547,13.8107c-28.6443,12.7876-52.6849,30.1788-74.1682,48.0815s-40.4089,36.8284-58.3116,54.22c-18.4142,17.9026-35.8053,34.2709-53.1965,49.616a417.3544,417.3544,0,0,1-53.1965,40.4089c-17.9027,11.7646-35.8054,20.9717-53.7081,27.11s-35.8053,10.23-52.6849,10.23c-8.6957.5114-16.88-.5114-24.5522-1.023a25.6659,25.6659,0,0,1-6.1381-1.0231c-2.046-.5114-4.092-1.0231-5.6266-1.5345-3.5806-1.023-7.6726-1.5344-11.2532-2.5575-13.8107-4.092-26.5983-11.2532-36.8284-18.4142a177.0744,177.0744,0,0,1-26.5984-23.5293c-7.161-7.161-14.8336-18.4142-13.2991-16.88-1.0231-1.0231-4.092-5.6266-4.092-5.6266-9.7186-14.8336-15.8567-29.6672-20.46-41.4319-1.0231-3.0691-2.046-5.6266-2.5576-7.6726,269.0518-269.0518,604.5993-604.0877,605.1106-604.5992a39.0379,39.0379,0,0,1,33.2479-8.1842c5.6266,1.0231,11.2532,4.092,15.8567,7.6726,1.0231,1.0231,2.5575,2.046,3.5806,3.0691l1.5344,1.5344,2.046,2.046c3.0691,4.092,89.5134,113.5542,110.9967,141.1755,43.478,56.2656,84.91,110.9967,125.3188,166.7507,20.46,28.1328,40.4089,56.2656,60.3575,85.4215,4.6036,7.161,32.2248,47.57,38.3629,57.2886a141.6245,141.6245,0,0,1,9.7186,37.34v3.0691c0,1.0231.5115,2.5575.5115,3.5806C2241.6934,981.856,2241.1819,998.7356,2230.9518,1015.1039ZM785.95,499.5065l.5116.5116a10.7018,10.7018,0,0,0,2.046,3.069,20.6217,20.6217,0,0,0,7.161,5.6266,16.9808,16.9808,0,0,0,8.1841,2.5575c2.046.5116,4.0921,0,6.65-.5115a15.81,15.81,0,0,0,4.0921-1.0231l4.092-1.5344a54.8279,54.8279,0,0,0,9.7186-6.6495l9.7185-7.1611,7.6726-5.115A486.2515,486.2515,0,0,1,923.5444,446.31c13.2992-5.6266,26.0868-10.7417,38.8744-13.8107a75.2675,75.2675,0,0,1,17.3912-2.5576c2.5575,0,4.6035.5116,5.6266.5116.5115,0,.5115,0,.5115.5115h.5115l.5116.5115a11.1737,11.1737,0,0,0,2.5575,1.5345,35.6548,35.6548,0,0,1,7.161,10.7416c2.046,4.6035,3.0691,10.7417,4.0921,16.3683,1.5345,12.2761,1.023,25.0637,1.023,38.8744,0,6.6495-.5115,13.8107,0,20.46,0,7.6726,1.023,13.8107,1.5345,20.46,1.023,13.2992,37.34,366.7492,40.409,394.3706,4.092,37.8513,3.069,25.5752,3.5806,29.6672a37.5638,37.5638,0,0,0,1.0231,4.092c5.6265,29.1558,14.322,51.1505,22.5062,51.662,2.5575,0,2.5575-5.6266,2.0459-9.7185-1.023-19.4372-1.023-53.7081-1.023-53.7081S1034.03,535.3122,1034.03,531.7316c0-4.092-.5115-7.6726-.5115-11.2532,0-7.161.5115-15.3451,1.023-23.5293.5116-16.3682,1.5345-33.7593-2.5575-53.708-2.046-9.7186-5.6266-20.46-13.8106-30.1788a81.5017,81.5017,0,0,0-6.65-6.6495c-2.5575-2.046-5.115-3.5806-8.1841-5.6266a38.0981,38.0981,0,0,0-19.4372-5.115c-11.7646-1.0231-21.4832,1.023-31.2019,3.5806a167.3423,167.3423,0,0,0-27.11,8.6956,454.9224,454.9224,0,0,0-50.6389,23.5293,537.1861,537.1861,0,0,0-48.593,29.6672c-1.023.5116-2.046,1.5345-3.0691,2.046-.5115,0-.5115.5116-1.023.5116s-.5115-.5116,0-1.0231v-1.0231l1.023-3.5806q.7673-2.3016,1.5345-4.6035c1.023-3.0691,2.046-6.6495,3.0691-9.7186a78.6821,78.6821,0,0,1,4.0921-9.7185c1.5345-3.0691,2.5575-6.65,4.6035-9.7186,6.138-12.7876,13.8106-25.5753,23.5292-36.8284a154.437,154.437,0,0,1,34.7824-30.69,194.5323,194.5323,0,0,1,45.5239-20.9717,290.807,290.807,0,0,1,54.22-10.7416c18.9257-2.046,38.8745-3.0691,59.8461-3.5806,10.7417-.5116,21.4833-.5116,32.7363-1.5345,5.6266-.5115,11.7646-1.0231,17.3912-1.5344,5.6266-1.0231,11.7645-2.046,17.3911-3.0691,5.6266-1.5345,11.7646-3.0691,17.3912-4.6035.5115,0,.5115.5115,1.023,1.0231l5.6266,4.0919,5.6266,3.5806a185.3,185.3,0,0,0,21.9947,12.2761c30.69,14.8336,60.8691,24.0408,90.5365,32.7363s58.8231,15.8567,87.4674,21.9947,57.2886,11.2532,84.91,15.3451c6.1381,1.0231,12.2761,1.5345,17.9027,2.5576.5115.5115,1.023.5115,1.5344,1.5344,0,1.0231,0,1.5345-.5115,2.046l-.5116.5115-.5115.5116-3.5806,2.5575q-3.8363,2.3018-7.6726,4.6035c-20.9717,11.7646-44.501,19.4372-68.03,25.0638a422.9905,422.9905,0,0,1-70.0763,10.7416c-23.0177,1.5344-45.5239,1.5344-66.4957-1.0231l-12.2761-2.046a36.2355,36.2355,0,0,0-7.161-.5115,37.64,37.64,0,0,0-26.0868,11.7646,40.55,40.55,0,0,0-11.2532,26.0867c0,5.6266-.5115,10.7417-.5115,15.8567-.5115,10.7417-1.0231,20.9718-2.046,30.69a147.63,147.63,0,0,1-2.046,14.8336l-.5115,3.5806a33.7628,33.7628,0,0,0-.5116,7.161,32.0418,32.0418,0,0,0,3.0691,13.8107,34.6406,34.6406,0,0,0,20.46,18.4142,15.749,15.749,0,0,0,6.6495,1.5345s20.9718,2.046,26.0868,2.5575c4.6035.5116,9.207,1.5345,13.8107,2.046,9.2071,1.0231,17.9027,3.0691,26.5984,5.1151,8.1841,2.5575,16.88,4.0919,24.5521,7.161,15.8567,5.6266,30.69,11.7646,42.4549,20.46,12.2761,8.6957,21.4833,18.4142,28.1328,29.6672a83.7637,83.7637,0,0,1,11.2532,36.3169c2.5575,25.0638-3.0691,50.1275-9.7186,72.1223-2.046,7.1611-4.6035,13.8107-7.161,20.9718-1.5345,3.5806-8.1841,20.9717-8.1841,20.9717a1.1,1.1,0,0,1-1.0231,1.0231h-.5116v-2.046l-.5115-4.6035a76.2985,76.2985,0,0,0-1.0231-10.7417q-.7673-5.3709-1.5344-10.7416c-.5116-3.5806-1.5345-7.1611-2.046-10.7416a161.9429,161.9429,0,0,0-14.3221-40.92,120.1229,120.1229,0,0,0-25.5753-33.7593,125.5822,125.5822,0,0,0-33.7593-21.4833,135.2036,135.2036,0,0,0-35.2939-9.7186c-12.7876-2.046-25.0637-2.046-37.34-1.5344-6.1381.5115-12.2761,1.023-18.4142,2.0459l-9.207,1.5345c-2.046.5115-8.6957,1.5345-13.2992,3.0691l-5.115,2.5575c-.5116.5115-1.0231.5115-1.5345,1.0231a15.988,15.988,0,0,0-4.6035,5.6265c-2.5575,4.6036-3.5806,9.7186-4.6035,14.8337-1.0231,6.6495-1.5345,12.2761-2.046,18.4142-1.0231,11.2532-1.0231,22.5062-1.5345,33.7594-1.5344,43.9894-3.5806,86.9558-7.6726,128.8993s-10.23,83.8869-19.4371,124.8073l-7.6726,30.69-.5115,2.046a49.5064,49.5064,0,0,0-1.0231,6.1381c-2.5575,11.2532-5.115,23.0177-9.207,37.8514-1.5345,3.5806-3.0691,9.207.5115,9.7185,11.7646,2.5576,27.11-16.3682,36.8285-44.501l.5115-1.5344c.5115-1.0231.5115-2.5576,1.0231-3.5806q3.069-9.9742,6.1381-23.0178c8.6957-35.2938,18.4142-87.4674,24.0408-155.4975,3.0691-33.7594,4.6035-71.6108,6.1381-112.02q.7674-15.3451,1.5345-30.69c.5115-5.115,1.0231-10.23,1.5344-14.8336v-2.5577a1.1,1.1,0,0,1,1.0231-1.023l2.5575-.5116,7.6726-1.5344a79.41,79.41,0,0,1,15.8567-1.5345,169.8119,169.8119,0,0,1,32.2248,1.0231c21.4833,2.5575,41.9435,11.2532,57.2886,26.5983s24.5522,37.34,29.1559,61.3807q.7673,4.6035,1.5344,9.207a56.354,56.354,0,0,1,1.0231,9.207c0,3.5806.5115,7.1611.5115,10.7417.5116,6.6495,0,12.7876,0,19.4371V846.307l6.1382,13.8107c.5115,1.0231.5115,1.0231,1.5344,1.5344a22.3647,22.3647,0,0,0,5.1151,3.0691,29.7683,29.7683,0,0,0,13.2991,1.5345,20.6188,20.6188,0,0,0,10.7417-4.092l4.092-3.0691a11.158,11.158,0,0,0,2.046-2.5575l2.0459-3.0691c1.5345-2.046,3.0691-3.5806,4.6036-7.161,0,0,9.207-21.4833,11.2531-27.11,5.6266-13.2992,11.2532-27.6213,15.8567-42.4549,5.6266-17.9027,10.23-36.3169,11.7646-56.2656,1.0231-9.7185.5115-20.46-.5116-30.69-1.023-5.115-1.5344-10.23-3.069-15.8567a42.6323,42.6323,0,0,0-2.046-7.6726l-2.5575-7.6725c-7.6726-20.46-23.0178-38.3629-40.4089-51.6621s-37.34-22.5062-57.8-28.6443c-20.46-6.6495-41.432-10.7417-62.9151-13.8107-5.1151-1.0231-10.7417-1.5345-15.8567-2.046s-9.7186-1.0231-14.8336-1.5345a2.6573,2.6573,0,0,1-2.046-1.023c0-.5116-.5116-.5116-.5116-1.0231V558.33l.5116-2.046c3.5806-21.9947,5.115-44.501,5.6266-65.9842v-2.046c0-.5115,0-.5115.5115-1.023a3.8769,3.8769,0,0,1,1.0231-2.046,12.8187,12.8187,0,0,1,3.5806-2.046h2.5577l9.207,1.5344c6.1381,1.0231,11.7646,1.5345,17.9027,2.046a457.9744,457.9744,0,0,0,70.0763-1.023,417.7881,417.7881,0,0,0,70.0762-11.7646c23.0178-5.6266,46.547-13.2992,69.0532-25.0637,3.0691-1.5345,5.6266-3.0691,8.1841-4.6035a44.1752,44.1752,0,0,0,8.1842-5.1151,49.4055,49.4055,0,0,0,11.2531-11.7646,41.3331,41.3331,0,0,0,5.1151-15.8566c1.0231-10.7417-3.0691-21.9947-10.7417-30.1788a34.9375,34.9375,0,0,0-14.322-8.6957c-1.5345-.5115-2.5576-.5115-4.092-1.023l-2.046-.5116-5.6266-1.0231a1212.8258,1212.8258,0,0,1-138.1064-30.1787c-23.0177-6.1382-46.0355-13.2992-68.5417-21.4833-20.9717-7.6726-42.4548-15.8567-60.8691-26.0868,1.5345-1.0231,3.0691-1.5345,4.6036-2.5575a221.5182,221.5182,0,0,0,31.2018-24.0408c4.6035-4.6036,9.207-9.7186,13.8107-14.8337,2.046-2.5575,4.6035-5.115,6.1381-8.1841l5.6266-8.6956a82.7773,82.7773,0,0,0,5.1151-9.2071c1.5344-3.069,3.5806-6.1381,5.115-9.207s6.1382-14.3221,6.1382-14.3221,3.5806-11.7645,4.6035-15.3451a5.5385,5.5385,0,0,0,.5115-3.0691l1.5345-9.7186a66.98,66.98,0,0,0,0-14.322c-.5116-2.5576-1.0231-4.6036-1.5345-7.1611l-1.0231-3.5806c-.5115-1.0231-1.023-2.5575-1.5344-3.5806-1.0231-2.5575-2.046-4.6035-3.0691-7.161a42.6815,42.6815,0,0,0-4.092-6.1381c-2.5575-4.092-6.1381-7.6726-9.207-11.2532-7.161-6.1382-14.8336-11.2532-22.5062-14.3221a101.4232,101.4232,0,0,0-49.1045-7.6726,96.0674,96.0674,0,0,0-49.1046,16.88c-4.0919,2.5575-7.161,6.1381-10.7416,9.2071-3.5806,3.5806-6.1381,7.161-9.207,10.7416-2.5576,4.092-5.1151,8.1841-6.6495,12.2761s-3.5806,8.6956-4.6035,12.7876c-5.1151,17.3912-4.6036,34.7823-2.5576,50.639,2.046,16.3682,6.6495,31.2019,11.7646,46.0355,2.5575,7.161,5.6266,14.3221,8.6956,21.4833a15.32,15.32,0,0,0,2.046,4.0919,12.0355,12.0355,0,0,1-4.092,1.0231,182.6241,182.6241,0,0,1-28.1327,5.6266c-9.7186,1.0231-19.9487,2.046-30.1788,2.5575-20.46,1.5345-41.432,2.5575-61.8922,5.1151a363.6908,363.6908,0,0,0-61.3806,12.7876c-19.9487,6.1381-39.3859,14.8336-56.7771,26.5983S843.7516,361.4,831.4754,377.768c-12.7876,15.8567-21.9947,33.2479-30.1788,51.1505a141.8471,141.8471,0,0,0-5.115,13.2992l-2.5575,6.65a32.5556,32.5556,0,0,0-1.023,3.5806l-1.023,4.092c-1.023,4.092-2.5576,8.1841-3.5806,12.2761s-2.5575,8.6956-2.0459,11.2532c0,6.1381,0,12.7876.5115,18.4142Zm372.3758-238.8728c-2.046-5.1151-4.092-9.7186-6.1382-14.8336-4.0919-9.7186-6.6495-19.9487-9.207-29.6673-2.046-9.7186-3.5806-19.4371-3.0691-28.6443,0-9.207,1.5345-17.3912,5.1151-24.0408a33.59,33.59,0,0,1,13.8107-15.3452c12.2761-7.6726,31.7134-9.7185,47.0585-5.115,7.6726,2.046,14.3221,6.1381,17.9027,9.7185,3.5806,4.092,5.1151,8.1842,4.6035,14.3221a15.7694,15.7694,0,0,0-.5115,5.1151l-2.046,6.6495c-1.0231,4.6035-3.0691,9.207-4.6035,13.2992-1.5345,4.6035-4.092,8.6956-5.6266,12.7876-2.046,4.092-4.6035,8.1841-7.161,12.2761-12.2761,18.4142-29.1559,33.2478-48.593,45.0124Z"></path>
  </g>
</svg>
