<?xml version="1.0" encoding="UTF-8"?>
<svg xmlns="http://www.w3.org/2000/svg" id="Ebene_1" data-name="Ebene 1" width="2400" height="1800" viewBox="0 0 2400 1800">
  <defs>
    <style>.cls-1{fill:#fff;}</style>
  </defs>
  <g id="growing_together" data-name="growing together">
    <path class="cls-1" d="M2091.635,1107.17c-1.7871-8.0418-4.4677-16.5305-11.6161-24.5723a31.7858,31.7858,0,0,0-13.4031-9.3822,40.6356,40.6356,0,0,0-15.6369-3.1274c-10.2757,0-18.3176,3.1274-25.0192,6.7015a71.1088,71.1088,0,0,0-9.8289,5.808,435.963,435.963,0,0,0,24.5723-36.6352,211.3079,211.3079,0,0,0,10.2757-20.1047,97.5371,97.5371,0,0,0,7.1483-23.6787,53.3912,53.3912,0,0,0-3.5741-29.4869,47.936,47.936,0,0,0-20.5514-22.3385,52.2526,52.2526,0,0,0-29.4869-6.7015,70.0988,70.0988,0,0,0-26.3594,8.0418,112.396,112.396,0,0,0-20.1046,13.4031,98.1768,98.1768,0,0,0-10.2757,8.9354c1.7871-3.5741,4.0209-7.1484,5.808-10.7225,7.1483-13.85,14.2967-28.1464,18.3176-45.5705,1.787-8.4886,3.1274-18.3176,0-29.4869a31.742,31.742,0,0,0-3.5741-8.0418c-1.7871-2.6806-3.1275-5.3613-5.3613-7.1483-2.2339-2.2339-4.0209-4.4677-6.7016-5.808a30.9734,30.9734,0,0,0-7.5951-4.4677L1944.6476,861a13.2173,13.2173,0,0,0-4.4677-.8936,30.396,30.396,0,0,0-8.9354-.8936,46.8243,46.8243,0,0,0-16.0838,3.1274,71.4132,71.4132,0,0,0-23.2321,14.7434c-16.9772,14.7433-29.4868,31.2739-41.5495,47.3576-12.0628,16.5306-23.2321,33.061-34.4013,49.5915q-6.0313,8.7119-12.0629,17.424c11.1693-21.4449,23.6788-42.4431,35.2948-63.888,4.4677-8.4886,8.9354-16.9772,12.9563-25.9126,2.2339-4.4677,4.0209-9.3822,5.808-13.85l2.6806-7.1484,2.2339-7.5951a86.2931,86.2931,0,0,0,2.6806-16.0838c.4468-5.8079.4468-12.0628-2.6806-19.6578l-2.6807-5.3613a23.4151,23.4151,0,0,0-4.4677-4.9145c-3.1274-3.1274-7.1483-4.9145-10.7224-6.2548-7.5952-2.2338-13.85-1.787-19.6579-.8935-11.616,1.787-20.9982,5.8079-29.9336,10.2756a195.8956,195.8956,0,0,0-25.0191,15.19,183.7291,183.7291,0,0,0-22.3385,18.7643c-6.7016,6.7016-12.9563,12.9563-19.2111,19.6579-14.7433,15.19-29.04,30.8271-42.89,46.0172a68.7413,68.7413,0,0,0-5.808-5.3613,37.239,37.239,0,0,0-16.0837-7.1483,39.4193,39.4193,0,0,0-16.0838-.4468,70.9139,70.9139,0,0,0-25.9126,8.9354,167.8472,167.8472,0,0,0-20.9982,13.4031c-25.4659,19.211-46.0172,41.5495-63.4414,65.2284a278.6854,278.6854,0,0,0-39.7625,75.5041c-8.9354,26.3594-11.1692,54.506-8.4886,79.9718s8.9354,48.6979,13.85,70.59c2.2339,10.7224,4.4677,21.4449,6.2548,31.7207.8936,4.9145,1.34,10.2756,1.787,15.19,0,2.6805.4468,4.9144.4468,7.5951v6.7016c-.4468,18.3174-7.1483,35.2949-16.5305,49.1447s-21.4449,25.019-33.061,34.4013-23.6787,17.8708-35.2948,23.2321c-.8935.4467-8.4886,4.021-8.4886,4.021a2.3216,2.3216,0,0,0-1.787-.8936,3.4184,3.4184,0,0,0-2.2339.8936c-.4468,0-.4468.8936-.8936,1.7872a236.77,236.77,0,0,1-27.7,9.829c-8.9354,2.68-14.7434,4.0211-15.637,5.808-.4468.8936,5.3613.8936,9.3822.8936,10.2757-.8936,19.6579-2.2339,27.7-4.4677,4.0209-.8936,8.0418-2.2339,12.0628-3.1275,1.7871-.4466,7.5952-2.68,8.4886-2.68l2.2339-.8936c1.787-.8936,3.5741-1.34,5.3613-2.2338,3.5741-1.34,7.1483-3.1275,10.7224-4.4677a176.3822,176.3822,0,0,0,20.5515-10.2757,138.8943,138.8943,0,0,0,19.211-13.85,152.2,152.2,0,0,0,31.2739-36.1883,107.6628,107.6628,0,0,0,15.19-47.3575,117.0559,117.0559,0,0,0,.4468-12.51c-.4468-4.021-.4468-8.0418-.8936-12.0628-.8936-8.0418-1.7871-15.637-3.1275-23.6788-5.3613-31.2739-13.85-60.7607-16.9772-91.141-1.34-15.19-1.34-29.9336,1.34-44.677a208.7309,208.7309,0,0,1,13.4031-44.23c12.5095-28.5932,31.2739-55.8462,54.9526-79.525,11.6161-11.616,24.5724-22.7853,38.4222-31.7207a100.7822,100.7822,0,0,1,20.9983-10.2756c6.7015-2.2339,13.4031-2.2339,17.424-.8936a14.9143,14.9143,0,0,1,7.1483,7.5951c-2.6806,3.1275-5.3613,6.2548-8.0418,8.9354-22.7853,26.3594-44.23,53.1656-62.5478,82.2057-4.4677,7.5951-8.9354,14.7433-12.9563,23.2321-4.0209,8.0418-7.5951,16.5305-9.3821,27.2529a49.4821,49.4821,0,0,0-.8936,8.4886,47.1489,47.1489,0,0,0,.8936,11.1693,36.5273,36.5273,0,0,0,10.2756,19.6578,42.486,42.486,0,0,0,8.9354,6.7016l4.9145,2.2338,4.4677,1.34a65.704,65.704,0,0,0,18.7644,2.6806,60.3751,60.3751,0,0,0,20.1046-4.9145,74.0349,74.0349,0,0,0,15.19-9.8289,103.5764,103.5764,0,0,0,20.5514-24.1256c10.7225-16.53,17.424-33.9545,22.3385-51.3785a235.9561,235.9561,0,0,0,8.4886-52.7188,179.2449,179.2449,0,0,0-.8936-26.8062c-.8936-6.2548-1.787-12.9563-4.0209-19.2111,1.7871-2.2338,4.0209-4.9145,5.808-7.1483,10.2756-12.51,21.4449-25.4659,33.0609-38.869,5.808-6.7016,11.6161-12.9563,17.8708-19.6579,3.1275-3.1274,6.2548-6.2547,9.3822-9.829,3.1274-3.1274,6.2548-5.8079,9.3822-8.9354,12.9563-11.1692,29.04-21.4449,44.677-26.8062a37.9734,37.9734,0,0,1,11.1692-2.2338h2.2339l1.787.4468a3.4579,3.4579,0,0,0,1.34.4468c.4468,0,.8936,1.34,1.34,4.4677a35.7793,35.7793,0,0,1-.8935,11.616c-3.5742,17.8708-12.9563,36.1884-23.2321,54.9527s-21.4449,37.9754-32.1675,58.08c-5.3613,10.2757-11.1693,20.5515-16.0838,31.2739-2.6806,5.3613-4.9145,10.7225-7.5951,16.5306-1.34,2.6806-2.2339,5.8079-3.5741,8.9354l-2.2339,5.8079-.4468.8936c0,.4468-.4468,1.34-.4468,1.7871a16.407,16.407,0,0,0,.4468,8.0418,20.402,20.402,0,0,0,10.2757,11.616c4.9145,2.2339,10.7224,1.7871,15.6369-.4468a8.0142,8.0142,0,0,0,3.1275-2.2338l3.1274-2.6807c1.34-1.34,2.6807-2.2338,3.5741-3.5741a187.4232,187.4232,0,0,0,12.9563-14.2967c8.0418-9.829,15.637-19.6578,22.7853-29.9336,14.2967-20.1046,28.1465-41.1029,42.89-61.2075a292.8163,292.8163,0,0,1,23.232-29.4869c8.0418-9.3822,16.5306-17.8708,25.466-23.6787a50.0577,50.0577,0,0,1,9.829-4.9145c3.1274-.4468,5.3613-.8936,7.5951,0,.4468,0,.8936.4468,1.7871.8936a3.3868,3.3868,0,0,1,1.787.8936,2.3212,2.3212,0,0,0,1.7871.8936c.4468.4468.8936.8936.8936,1.34a11.5919,11.5919,0,0,1,2.6806,6.2548c.8936,5.8079-.8936,14.2967-3.5741,22.3385a138.2789,138.2789,0,0,1-11.1692,25.0191c-17.424,33.061-40.2093,63.888-61.2076,94.7153-5.3613,7.5951-10.2756,15.6369-15.6369,23.6787a120.3394,120.3394,0,0,0-7.1484,12.9563c-1.34,2.2339-2.2338,4.4677-3.5741,7.1484l-.8936,1.787c-.4468.4468,0,0-.8935,1.7871a17.573,17.573,0,0,0,1.34,14.2967,15.14,15.14,0,0,0,6.2548,6.7015,19.5829,19.5829,0,0,0,8.4886,3.1275c3.1274.4468,6.7015-.4468,9.8289-1.7871,1.34-.8936,2.6807-1.34,4.021-2.2338.8935-.8936.8935-.4468.8935-.8936l1.34-1.34,5.3613-5.3613c3.5741-3.5741,6.7015-7.1483,9.829-10.2756,6.2547-7.1484,12.0628-13.85,17.424-20.9983,11.1692-13.85,21.8917-27.253,32.6141-39.7625s21.8917-24.5723,33.5078-34.848c11.1692-9.829,24.1255-18.3176,33.9545-19.211,4.9145-.4468,8.4886.4468,12.0628,3.1274,4.4677,2.6807,6.2548,5.3613,7.1484,8.9354a28.6906,28.6906,0,0,1-.8936,14.7434,118.721,118.721,0,0,1-7.1483,18.3176c-6.2548,12.51-14.2967,24.1255-23.2321,36.1884-17.424,23.232-36.1884,45.1237-54.0592,68.3557-4.4677,5.8079-8.9354,11.616-13.4031,17.8708a73.4534,73.4534,0,0,0-6.2548,9.829l-3.1274,5.8079c-1.34,3.1275-2.6807,6.7016-2.2339,10.7225a21.5091,21.5091,0,0,0,3.1275,10.7224,22.5731,22.5731,0,0,0,16.9772,11.1693,21.6218,21.6218,0,0,0,10.7224-1.34,13.9732,13.9732,0,0,0,4.4677-2.2338c.8936-.4468.8936-.4468.8936-.8936l.4468-.4468c3.1275-2.2339,6.2548-4.4677,9.3822-7.1484,5.808-4.9145,11.1693-9.3822,16.5306-14.2967,10.2756-9.8289,19.6578-19.211,28.5932-28.5932,8.9354-8.9354,18.3176-17.424,27.253-23.2321a57.99,57.99,0,0,1,12.5095-6.7015,16.82,16.82,0,0,1,7.1483-.8936c.4468.4468,1.34.4468,3.1275,3.5741a34.1086,34.1086,0,0,1,2.6806,11.1692,72.847,72.847,0,0,1-4.9145,28.5933,99.3248,99.3248,0,0,1-6.7015,14.2967c-2.6807,5.3613-5.3613,10.7224-8.0418,15.6369-11.1693,20.5514-22.7853,39.7625-34.848,58.5269a759.8977,759.8977,0,0,1-80.4186,100.97c-7.1483,7.5951-14.7433,14.7433-21.8917,22.3385s-14.7433,14.2967-22.3385,20.9982c-7.5951,7.1482-14.7433,13.85-22.7853,20.5513-8.0418,6.2549-15.6369,12.9564-23.2321,19.2111-62.1009,50.9318-128.223,92.4814-198.3658,129.1166-8.9353,4.4677-17.4239,8.9354-26.3593,13.85-8.9354,4.4677-17.424,9.3821-26.8062,13.4031-18.3176,8.0418-36.6352,16.5305-54.9527,25.019-9.3822,4.4677-18.7644,8.0418-28.1464,12.0629-4.4677,1.7871-14.7434,5.8079-14.7434,5.8079-1.34.4467-25.4659,12.0628-39.7625,18.7644-3.5741,1.34-8.9354,3.5741-7.5951,5.808,4.4677,7.5951,27.253,5.3612,54.9526-3.1275,0,0,24.1256-8.4887,31.2739-11.1692s14.7434-6.2549,23.2321-9.3821q24.7958-10.7223,57.6333-24.1257c20.9982-10.2756,45.1238-20.9982,70.1429-34.4013,12.5095-6.7016,52.7188-29.04,59.8672-33.0611,6.7015-4.4677,13.85-8.4887,20.5514-12.9564,56.293-35.295,118.8408-79.525,177.8144-138.9454,7.5951-7.5951,14.7433-15.19,22.3384-22.7851,7.1484-8.0418,14.2967-16.0836,21.4449-24.5723,7.5952-8.0419,14.2967-16.9772,20.9983-25.9126l10.7224-13.4031c3.5741-4.4677,6.7016-9.3821,9.829-13.85s6.7016-9.3822,10.2757-13.85c3.5741-4.9145,6.2547-9.829,9.829-14.7434q4.6911-7.3718,9.3822-14.7433c3.1274-4.9145,5.8079-10.2757,8.9354-15.19a177.4882,177.4882,0,0,0,8.9354-15.6369c2.6806-5.3613,5.8079-10.7225,8.4886-15.637l4.0209-8.0418c1.34-2.6806,2.6806-5.3613,4.4677-8.4886a103.524,103.524,0,0,0,7.1483-19.6578C2092.9752,1137.104,2094.7623,1122.8073,2091.635,1107.17Zm-427.1121-78.1847c-4.4677,16.9772-10.7224,34.4013-19.211,49.5915a82.4965,82.4965,0,0,1-14.2967,19.6578c-5.3613,5.3613-10.2756,7.5952-13.4031,8.0418a13.28,13.28,0,0,1-5.3613-.8936.4375.4375,0,0,1-.4468-.4467,22.7388,22.7388,0,0,0,.4468-3.5742,63.9987,63.9987,0,0,1,3.5741-12.9563c7.1484-19.211,20.9983-41.55,36.6352-64.7816,5.808-8.4886,11.616-16.9772,17.8708-25.4659A265.86,265.86,0,0,1,1664.5229,1028.9856Zm-163.5178-330.61c25.466-2.6806,48.6979-8.9354,70.59-13.85,10.7225-2.2338,21.4449-4.4677,31.7207-6.2547,5.3613-.8936,10.2757-1.34,15.19-1.7871,2.6806,0,4.9145-.4468,7.5951-.4468h6.7016c18.3175.4468,35.2948,7.1484,49.1446,16.53s25.0192,21.4449,34.4014,33.061a199.6686,199.6686,0,0,1,23.2321,35.2948l1.787,3.5741a35.123,35.123,0,0,1,1.7871,4.0209,251.9643,251.9643,0,0,1,12.5095,33.5077c2.6806,8.9354,4.0209,14.7434,5.8079,15.637.8936.4468.8936-5.3613.8936-9.3822-.8936-10.2757-2.2338-19.6579-4.4677-27.7-.8936-4.0209-2.2338-8.0418-3.1274-12.0628-.4468-1.7871-2.6807-7.5952-2.6807-8.4886l-.8936-2.2339c-.8936-1.787-1.34-3.5741-2.2338-5.3613-1.34-3.5741-3.1275-7.1483-4.4677-10.7224a176.3665,176.3665,0,0,0-10.2757-20.5515,138.8626,138.8626,0,0,0-13.85-19.211,152.196,152.196,0,0,0-36.1883-31.2739,107.6636,107.6636,0,0,0-47.3577-15.19,117.054,117.054,0,0,0-12.51-.4468c-4.0209.4468-8.0418.4468-12.0628.8936-8.0418.8936-15.637,1.7871-23.6788,3.1275-31.2739,5.3613-60.7607,13.85-91.141,16.9772-15.19,1.34-29.9336,1.34-44.677-1.34a208.7309,208.7309,0,0,1-44.23-13.4031c-28.5932-12.51-55.8462-31.2739-79.525-54.9526-11.616-11.6161-22.7852-24.5724-31.7206-38.4223a100.7848,100.7848,0,0,1-10.2757-20.9982c-2.2338-7.1483-2.2338-13.4031-.8936-17.424a14.9142,14.9142,0,0,1,7.5952-7.1483c3.1274,2.6806,6.2547,5.3613,8.9353,8.0418,26.3594,22.7853,53.1656,44.23,82.2057,62.5477a226.1453,226.1453,0,0,0,23.2321,12.9563c8.0418,4.0209,16.5305,7.5952,27.253,9.3822a49.48,49.48,0,0,0,8.4886.8936,47.1485,47.1485,0,0,0,11.1692-.8936,36.528,36.528,0,0,0,19.6578-10.2756,42.486,42.486,0,0,0,6.7016-8.9354l2.2338-4.9145,1.34-4.4677a65.7,65.7,0,0,0,2.6806-18.7644,60.375,60.375,0,0,0-4.9144-20.1046,74.0394,74.0394,0,0,0-9.829-15.19,103.5764,103.5764,0,0,0-24.1256-20.5514c-16.53-10.7225-33.9545-17.424-51.3785-22.3385a235.9561,235.9561,0,0,0-52.7188-8.4886,179.2449,179.2449,0,0,0-26.8062.8936c-6.2548.8936-12.9563,1.787-19.2111,4.0209-2.2338-1.7871-4.9144-4.0209-7.1483-5.808-12.5095-10.2756-25.4659-21.4449-38.869-33.0609-6.7016-5.808-12.9563-11.6161-19.6579-17.8708-3.1274-3.1275-6.2547-6.2548-9.829-9.3822-3.1274-3.1275-5.8079-6.2548-8.9354-9.3822-11.1692-12.9563-21.4449-29.04-26.8062-44.677a37.9734,37.9734,0,0,1-2.2338-11.1692v-2.2339l.4468-1.787a3.4579,3.4579,0,0,0,.4468-1.34c0-.4468,1.34-.8936,4.4677-1.34a35.7768,35.7768,0,0,1,11.616.8936c17.8708,3.5741,36.1884,12.9563,54.9527,23.2321s37.9754,21.4449,58.5268,32.1675c10.2757,5.3613,20.5515,11.1693,31.2739,16.0838,5.3613,2.6806,10.7225,4.9145,16.5306,7.5951,2.6806,1.34,5.8079,2.2338,8.9354,3.5741l5.8079,2.2339.8936.4468c.4468,0,1.34.4467,1.7871.4467a16.4082,16.4082,0,0,0,8.0418-.4467,20.402,20.402,0,0,0,11.616-10.2757c2.2339-4.9145,1.7871-10.7225-.4468-15.6369a8.0142,8.0142,0,0,0-2.2338-3.1275l-2.6807-3.1274c-1.34-1.34-2.2338-2.6807-3.5741-3.5741a187.4232,187.4232,0,0,0-14.2967-12.9563c-9.829-8.0418-19.6578-15.637-29.9336-22.7853-20.1046-14.2967-41.1029-28.1465-61.2075-42.89a292.803,292.803,0,0,1-29.4869-23.2321c-9.3822-8.0418-17.8708-16.53-23.6787-25.4659a50.0577,50.0577,0,0,1-4.9145-9.829c-.4468-3.1274-.8936-5.3613,0-7.5951,0-.4468.4468-.8936.4468-1.7871a3.3868,3.3868,0,0,1,.8936-1.787,2.3212,2.3212,0,0,0,.8936-1.7871c.4468-.4468.8936-.8936,1.34-.8936a11.5919,11.5919,0,0,1,6.2548-2.6806c5.8079-.8936,14.2967.8936,22.3385,3.5741a138.2789,138.2789,0,0,1,25.0191,11.1692c33.061,17.424,63.8881,40.2093,94.7153,61.2076,7.5951,5.3612,15.6369,10.2756,23.6787,15.6369a120.3388,120.3388,0,0,0,12.9563,7.1483c2.2339,1.34,4.4677,2.2339,7.1484,3.5742l1.787.8935c.4468.4468,0,0,1.7871.8936a17.573,17.573,0,0,0,14.2967-1.34,15.14,15.14,0,0,0,6.7015-6.2548,19.5829,19.5829,0,0,0,3.1275-8.4886c.4468-3.1274-.4468-6.7015-1.7871-9.829-.8936-1.34-1.34-2.6806-2.2338-4.0209-.8936-.8936-.4468-.8936-.8936-.8936l-1.34-1.34-5.3613-5.3613c-3.5741-3.5741-7.1483-6.7015-10.2756-9.829-7.1484-6.2547-13.85-12.0628-20.9983-17.424-13.85-11.1692-27.253-21.8917-39.7625-32.6141s-24.5723-21.8917-34.848-33.5078c-9.829-11.1692-18.3176-24.1255-19.211-33.9545-.4468-4.9145.4468-8.4886,3.1274-12.0629,2.6807-4.4677,5.3613-6.2547,8.9354-7.1483a28.6906,28.6906,0,0,1,14.7434.8936,118.7109,118.7109,0,0,1,18.3176,7.1483c12.5095,6.2548,24.1255,14.2967,36.1884,23.2321,23.232,17.424,45.1237,36.1884,67.909,54.0592,5.808,4.4677,11.6161,8.9354,17.8708,13.4031a73.4662,73.4662,0,0,0,9.829,6.2548l5.808,3.1274c3.1274,1.34,6.7015,2.6806,10.7224,2.2338a21.5094,21.5094,0,0,0,10.7225-3.1274,22.5732,22.5732,0,0,0,11.1692-16.9772,21.6229,21.6229,0,0,0-1.34-10.7224,13.9733,13.9733,0,0,0-2.2339-4.4677c-.4468-.8936-.4468-.8936-.8936-.8936l-.4468-.4468c-2.2338-3.1275-4.4677-6.2548-7.1483-9.3822-4.9145-5.808-9.3822-11.1693-14.2967-16.5306-9.829-10.2756-19.2111-19.6578-28.5933-28.5932-8.9354-8.9354-17.424-18.3176-23.232-27.253a57.9914,57.9914,0,0,1-6.7016-12.5095,16.8225,16.8225,0,0,1-.8936-7.1484c.4468-.4467.4468-1.34,3.5741-3.1274a34.1074,34.1074,0,0,1,11.1693-2.6806,72.8483,72.8483,0,0,1,28.5932,4.9145,99.3248,99.3248,0,0,1,14.2967,6.7015c5.3613,2.6806,10.7225,5.3613,15.6369,8.0418,20.5515,11.1693,39.7625,22.7853,58.5269,34.848a759.8907,759.8907,0,0,1,100.97,80.4186c7.5952,7.1483,14.7434,14.7433,22.3385,21.8917s14.2967,14.7433,20.9983,22.3385c7.1483,7.5951,13.85,14.7433,20.5514,22.7853,6.2548,8.0418,12.9563,15.6369,19.2111,23.232,50.9317,62.101,92.4814,128.2231,129.1164,198.3658,4.4677,8.9354,8.9354,17.424,13.85,26.3594,4.4677,8.9354,9.3822,17.424,13.4031,26.8062,8.0418,18.3176,16.5306,36.6352,25.0192,54.9527,4.4677,9.3822,8.0418,18.7644,12.0628,28.1464,1.7871,4.4677,5.808,14.7434,5.808,14.7434.4468,1.34,12.0628,25.4659,18.7644,39.7625,1.34,3.5741,3.5741,8.9354,5.8079,7.5951,7.5951-4.4677,5.3613-27.253-3.1274-54.9526,0,0-8.4886-24.1256-11.1693-31.2739s-6.2547-14.7434-9.3822-23.2321q-10.7224-24.7959-24.1255-57.6333c-10.2757-20.9982-20.9983-45.1238-34.4014-70.1429-6.7015-12.51-29.04-52.7188-33.0609-59.8672-4.4677-6.7015-8.4886-13.85-12.9563-20.5514-35.2948-56.293-79.525-118.8408-138.9455-177.8144-7.5951-7.5951-15.19-14.7433-22.7853-22.3385-8.0418-7.1483-16.0837-14.2966-24.5723-21.4449-8.0418-7.5951-16.9772-14.2966-25.9126-20.9982l-13.4031-10.7224c-4.4677-3.5741-9.3822-6.7016-13.85-9.829s-9.3822-6.7016-13.85-10.2757-9.829-6.2547-14.7433-9.829q-7.3718-4.6911-14.7434-9.3822c-4.9145-3.1274-10.2756-5.8079-15.19-8.9354a177.5153,177.5153,0,0,0-15.637-8.9354c-5.3613-2.6806-10.7224-5.808-15.6369-8.4886l-8.0418-4.0209c-2.6807-1.34-5.3613-2.6806-8.4886-4.4677a103.5386,103.5386,0,0,0-19.6579-7.1483c-13.4031-3.5742-28.1464-5.808-43.7834-2.2339-8.0418,1.7871-16.53,4.4677-24.5723,11.6161a31.787,31.787,0,0,0-9.3822,13.4031,40.6371,40.6371,0,0,0-3.1274,15.6369c0,10.2757,3.1274,18.3176,6.7015,25.0192,1.7871,3.5741,3.5741,6.7015,5.808,10.2756a435.963,435.963,0,0,0-36.6352-24.5723,211.2846,211.2846,0,0,0-20.1047-10.2757,97.5371,97.5371,0,0,0-23.6787-7.1483,53.3912,53.3912,0,0,0-29.4869,3.5741,47.936,47.936,0,0,0-22.3385,20.5514,52.2524,52.2524,0,0,0-6.7015,29.4869,70.0988,70.0988,0,0,0,8.0418,26.3594,112.4,112.4,0,0,0,13.4031,20.1046,98.187,98.187,0,0,0,8.9354,10.2757c-3.5741-1.7871-7.1483-4.0209-10.7225-5.808-13.85-7.1483-28.1464-14.2967-45.5705-18.3176-8.4886-1.787-18.3176-3.1274-29.4869,0a31.742,31.742,0,0,0-8.0418,3.5741c-2.6806,1.7871-5.3613,3.1275-7.1483,5.3613-2.2339,2.2339-4.4677,4.0209-5.808,6.7016a30.9734,30.9734,0,0,0-4.4677,7.5951l-1.787,4.0209a13.2168,13.2168,0,0,0-.8936,4.4677,30.3953,30.3953,0,0,0-.8936,8.9354,46.8242,46.8242,0,0,0,3.1274,16.0837,71.4132,71.4132,0,0,0,14.7434,23.2321c14.7433,16.9772,31.2739,29.4869,47.3576,41.55,16.5306,12.0628,33.061,23.2321,49.5915,34.4013l17.424,12.0628c-21.4449-11.1692-41.9963-23.6787-63.888-35.2947-8.4886-4.4677-16.9772-8.9354-25.9126-12.9563-4.4677-2.2339-9.3822-4.0209-13.85-5.808l-7.1484-2.6806-7.5951-2.2339a86.2849,86.2849,0,0,0-16.0838-2.6806c-5.8079-.4468-12.0628-.4468-19.6578,2.6806l-5.3613,2.6806a23.4206,23.4206,0,0,0-4.9145,4.4677c-3.1274,3.1275-4.9145,7.1484-6.2548,10.7225-2.2338,7.5951-1.787,13.85-.8935,19.6578,1.787,11.6161,5.8079,20.9983,10.2756,29.9337a195.8956,195.8956,0,0,0,15.19,25.0191,183.7367,183.7367,0,0,0,18.7643,22.3385c6.7016,6.7016,12.9563,12.9563,19.6579,19.2111,15.19,14.7433,30.8271,29.04,46.0172,42.89a68.7413,68.7413,0,0,0-5.3613,5.808,37.2384,37.2384,0,0,0-7.1483,16.0837,39.4188,39.4188,0,0,0-.4468,16.0837c1.34,10.2757,4.9145,18.7644,8.9354,26.3594a167.8485,167.8485,0,0,0,13.4031,20.9983c19.211,25.4659,41.5495,46.0172,65.2284,63.4413a278.6854,278.6854,0,0,0,75.5041,39.7625C1447.3928,698.8227,1475.5393,701.0565,1501.0051,698.3759ZM1371.4419,523.2421c16.9772,4.4677,34.4013,10.7224,49.5915,19.211a82.4965,82.4965,0,0,1,19.6578,14.2967c5.3613,5.3613,7.5952,10.2756,8.0418,13.4031a13.28,13.28,0,0,1-.8936,5.3613.4376.4376,0,0,1-.4468.4468,22.7288,22.7288,0,0,0-3.5741-.4468,63.9987,63.9987,0,0,1-12.9563-3.5741c-19.211-7.1484-41.55-20.9983-64.7816-36.6352-8.4886-5.808-16.9772-11.616-25.4659-17.8708A196.2635,196.2635,0,0,1,1371.4419,523.2421ZM535.5355,829.7262a98.1651,98.1651,0,0,0,10.2757-8.9354c-1.787,3.5741-4.0209,7.1484-5.808,10.7225-7.1484,13.85-14.2966,28.1464-18.3176,45.5706-1.7871,8.4886-3.1273,18.3175,0,29.4868a31.7389,31.7389,0,0,0,3.5742,8.0418c1.787,2.6806,3.1273,5.3613,5.3612,7.1483,2.2338,2.2339,4.0209,4.4677,6.7015,5.808a30.9753,30.9753,0,0,0,7.5951,4.4677l4.0209,1.787a13.2173,13.2173,0,0,0,4.4677.8936,30.3957,30.3957,0,0,0,8.9354.8936,46.8243,46.8243,0,0,0,16.0838-3.1274,71.4127,71.4127,0,0,0,23.232-14.7434c16.9772-14.7433,29.4868-31.2739,41.55-47.3576,12.0628-16.53,23.232-33.0609,34.4013-49.5915,4.0209-5.8079,8.0418-11.616,11.616-17.424-11.1693,21.4449-23.6788,41.9964-35.2948,63.4414-4.4677,8.4886-8.9354,16.9772-12.9563,25.9126-2.2338,4.4677-4.0209,9.3822-5.808,13.85l-2.6807,7.1483-2.2338,7.5952a86.2836,86.2836,0,0,0-2.6807,16.0837c-.4468,5.808-.4468,12.0629,2.6807,19.6579l2.6806,5.3613a23.4258,23.4258,0,0,0,4.4677,4.9145c3.1274,3.1274,7.1484,4.9145,10.7225,6.2547,7.5951,2.2339,13.85,1.7871,19.6578.8936,11.6161-1.7871,20.9982-5.808,29.9336-10.2757a195.8952,195.8952,0,0,0,25.0191-15.19A183.73,183.73,0,0,0,745.0705,930.25c6.7016-6.7015,12.9563-12.9563,19.2111-19.6578,14.7435-15.19,29.04-30.8271,42.89-46.0173a68.7247,68.7247,0,0,0,5.808,5.3613,37.24,37.24,0,0,0,16.0837,7.1484,39.4228,39.4228,0,0,0,16.0838.4468c10.2757-1.34,18.7643-4.9145,26.3594-8.9354a167.8545,167.8545,0,0,0,20.9982-13.4031c25.4658-19.2111,46.0173-41.55,63.4413-65.2285a278.6849,278.6849,0,0,0,39.7625-75.504c8.9354-26.3594,11.1692-54.506,8.4886-79.9718s-8.9354-48.6979-13.85-70.59c-2.2339-10.7225-4.4677-21.4449-6.2548-31.7207-.8935-4.9145-1.34-10.2757-1.787-15.19,0-2.6806-.4468-4.9144-.4468-7.5951v-6.7015c.4468-18.3176,7.1483-35.2948,16.53-49.1447s21.445-25.0192,33.061-34.4014a199.6659,199.6659,0,0,1,35.2948-23.232c.8935-.4468,7.595-3.5742,7.595-3.5742a251.9834,251.9834,0,0,1,33.5077-12.51c8.9354-2.6806,14.7434-4.0209,15.637-5.8079.4468-.8936-5.3613-.8936-9.3822-.8936-10.2757.8936-19.6579,2.2338-27.7,4.4677-4.021.8936-8.0419,2.2338-12.0628,3.1274-1.7871.4468-7.5951,2.6807-8.4886,2.6807l-2.2339.8936c-1.787.8936-3.5741,1.34-5.3612,2.2338-3.5742,1.34-7.1483,3.1275-10.7224,4.4677a176.3665,176.3665,0,0,0-20.5515,10.2757,138.87,138.87,0,0,0-19.2111,13.85,152.1987,152.1987,0,0,0-31.2739,36.1884,107.6622,107.6622,0,0,0-15.19,47.3576,117.054,117.054,0,0,0-.4468,12.51c.4468,4.0209.4468,8.0418.8935,12.0628.8935,8.0418,1.787,15.637,3.1274,23.6788,5.3612,31.2739,13.85,60.7607,16.9772,91.141,1.34,15.19,1.34,29.9336-1.34,44.677a208.7291,208.7291,0,0,1-13.4031,44.23c-12.51,28.5932-31.2739,55.8462-54.9527,79.525-11.616,11.616-24.5723,22.7853-38.4222,31.7207a100.784,100.784,0,0,1-20.9982,10.2756c-7.1484,2.2339-13.4031,2.2339-17.424.8936A14.9139,14.9139,0,0,1,828.17,841.79c2.6806-3.1275,5.3612-6.2548,8.0418-8.9354,22.7853-26.3594,44.23-53.1656,62.5478-82.2057,4.4677-7.5951,8.9354-14.7433,12.9563-23.232,4.0209-8.0419,7.5951-16.5306,9.3822-27.253a49.4825,49.4825,0,0,0,.8935-8.4886,47.1544,47.1544,0,0,0-.8935-11.1693,36.5281,36.5281,0,0,0-10.2757-19.6578,42.486,42.486,0,0,0-8.9354-6.7016l-4.9145-2.2338-4.4677-1.34a65.7043,65.7043,0,0,0-18.7643-2.6806,60.3757,60.3757,0,0,0-20.1047,4.9145,74.03,74.03,0,0,0-15.19,9.829A103.5745,103.5745,0,0,0,817.8938,686.76c-10.7224,16.53-17.424,33.9545-22.3385,51.3785a235.9676,235.9676,0,0,0-8.4886,52.7188,179.2449,179.2449,0,0,0,.8936,26.8062c.8935,6.2548,1.787,12.9563,4.0209,19.2111-1.7871,2.2338-4.0209,4.9145-5.8081,7.1483-10.2757,12.51-21.4449,25.466-33.0609,38.869-5.808,6.7016-11.616,12.9563-17.8708,19.6579-3.1274,3.1274-6.2547,6.2547-9.3822,9.829-3.1274,3.1274-6.2547,5.8079-9.3822,8.9354-12.9563,11.1692-29.04,21.4449-44.677,26.8062a37.9734,37.9734,0,0,1-11.1692,2.2338h-2.2339l-1.787-.4468a3.4574,3.4574,0,0,0-1.34-.4468c-.4468,0-.8936-1.34-1.34-4.4677a35.7768,35.7768,0,0,1,.8936-11.616c3.5741-17.8708,12.9563-36.1884,23.232-54.9526s21.4449-37.9755,32.1674-58.08c5.3612-10.2757,11.1692-20.5515,16.0837-31.2739,2.6807-5.3613,4.9145-10.7225,7.5951-16.5306,1.34-2.6806,2.2339-5.8079,3.5742-8.9354l2.2338-5.8079.4468-.8936c0-.4468.4468-1.34.4468-1.7871a16.407,16.407,0,0,0-.4468-8.0418,20.4017,20.4017,0,0,0-10.2757-11.616c-4.9145-2.2339-10.7224-1.7871-15.6369.4468a8.0124,8.0124,0,0,0-3.1274,2.2338l-3.1274,2.6807c-1.34,1.34-2.6806,2.2338-3.5742,3.5741A187.4232,187.4232,0,0,0,691.4579,758.69c-8.0418,9.829-15.6369,19.6578-22.7852,29.9336-14.2967,20.1047-28.1466,41.1029-42.89,61.2075a292.8306,292.8306,0,0,1-23.232,29.4869c-8.0419,9.3822-16.53,17.8708-25.4659,23.6787a50.06,50.06,0,0,1-9.8289,4.9145c-3.1274.4468-5.3612.8936-7.5951,0-.4468,0-.8935-.4468-1.787-.8936a3.387,3.387,0,0,1-1.7871-.8936,2.321,2.321,0,0,0-1.787-.8936c-.4468-.4468-.8936-.8936-.8936-1.34a11.5911,11.5911,0,0,1-2.6806-6.2548c-.8935-5.8079.8935-14.2967,3.5742-22.3385a138.2789,138.2789,0,0,1,11.1692-25.0191c17.424-33.0609,40.2093-63.888,61.2075-94.7153,5.3612-7.5951,10.2757-15.6369,15.19-23.6787a120.3394,120.3394,0,0,0,7.1484-12.9563c1.34-2.2339,2.2338-4.4677,3.5741-7.1484l.8936-1.787c.4468-.4468,0,0,.8935-1.7871a17.5739,17.5739,0,0,0-1.34-14.2967,15.1419,15.1419,0,0,0-6.2548-6.7015,19.5822,19.5822,0,0,0-8.4886-3.1274c-3.1274-.4468-6.7015.4468-9.8289,1.787-1.34.8936-2.6806,1.34-4.0209,2.2339-.8935.8936-.8935.4468-.8935.8936l-1.34,1.34-5.3612,5.3613c-3.5742,3.5741-6.7015,7.1483-9.8289,10.2757-6.2548,7.1483-12.0628,13.85-17.424,20.9982-11.1692,13.85-21.8917,27.253-32.6142,39.7625s-21.8917,24.5723-33.5078,34.848c-11.1692,9.829-24.1255,18.3176-33.9545,19.211-4.9144.4468-8.4886-.4468-12.0627-3.1274-4.4677-2.6807-6.2548-5.3613-7.1483-8.9354a28.6915,28.6915,0,0,1,.8935-14.7434,118.721,118.721,0,0,1,7.1483-18.3176c6.2548-12.51,14.2966-24.1255,23.232-36.1883,17.424-23.2321,36.1884-45.1238,54.0592-68.3558,4.4677-5.8079,8.9354-11.616,13.4031-17.8708a73.4529,73.4529,0,0,0,6.2547-9.829l3.1274-5.8079c1.34-3.1275,2.6806-6.7016,2.2338-10.7225a21.511,21.511,0,0,0-3.1273-10.7224,22.5733,22.5733,0,0,0-16.9773-11.1693,21.6222,21.6222,0,0,0-10.7225,1.34,13.9763,13.9763,0,0,0-4.4677,2.2338c-.8935.4468-.8935.4468-.8935.8936l-.4468.4468c-3.1274,2.2339-6.2547,4.4677-9.3822,7.1484-5.808,4.9145-11.1692,9.3822-16.53,14.2967-10.2758,9.829-19.6579,19.211-28.5933,28.5932-8.9354,8.9354-18.3176,17.424-27.253,23.2321a57.9886,57.9886,0,0,1-12.51,6.7015,16.82,16.82,0,0,1-7.1483.8936c-.4467-.4468-1.34-.4468-3.1273-3.5741a34.1034,34.1034,0,0,1-2.6807-11.1692,72.8524,72.8524,0,0,1,4.9145-28.5933,99.3313,99.3313,0,0,1,6.7016-14.2966c2.6806-5.3613,5.3612-10.7225,8.0418-15.637,11.1693-20.5514,22.7853-39.7625,34.8481-58.5269a759.8972,759.8972,0,0,1,80.4186-100.97c7.1484-7.5951,14.7434-14.7433,21.8917-22.3385s14.7434-14.2967,22.3385-20.9982c7.5951-7.1484,14.7434-13.85,22.7853-20.5515,8.0419-6.2547,15.6369-12.9563,23.232-19.211,62.101-50.9318,128.2229-92.4814,198.3659-129.1165,8.9354-4.4677,17.424-8.9354,26.3594-13.85,8.9354-4.4677,17.424-9.3822,26.8062-13.4031,18.3176-8.0418,36.6351-16.5305,54.9527-25.0191,9.3822-4.4677,18.7643-8.0418,28.1465-12.0629,4.4677-1.787,14.7434-5.8079,14.7434-5.8079,1.34-.4468,25.4659-12.0628,39.7625-18.7644,3.5742-1.34,8.9354-3.5741,7.5951-5.808-4.4677-7.5951-27.253-5.3612-54.9527,3.1275,0,0-24.1256,8.4886-31.2739,11.1692s-14.7435,6.2548-23.2321,9.3822q-24.7956,10.7226-57.6332,24.1256c-20.9982,10.2756-45.1238,20.9982-70.1429,34.4013-12.51,6.7016-52.7189,29.04-59.8671,33.061-6.7016,4.4677-13.85,8.4886-20.5515,12.9563-56.293,35.2948-118.8408,79.5249-177.8144,138.9454-7.5951,7.5952-14.7434,15.19-22.3385,22.7853-7.1483,8.0418-14.2966,16.0838-21.445,24.5724-7.595,8.0418-14.2966,16.9772-20.9981,25.9125l-10.7225,13.4031c-3.5742,4.4677-6.7016,9.3822-9.8289,13.85s-6.7016,9.3822-10.2758,13.85c-3.5741,4.9145-6.2547,9.829-9.8289,14.7434l-9.3821,14.7433c-3.1274,4.9145-5.8081,10.2757-8.9354,15.19a177.463,177.463,0,0,0-8.9354,15.6369c-2.6806,5.3613-5.8081,10.7225-8.4887,15.637l-4.0209,8.0418c-1.34,2.6806-2.6806,5.3613-4.4677,8.4886a103.5308,103.5308,0,0,0-7.1483,19.6578c-3.5742,13.4031-5.808,28.1465-2.2339,43.7834,1.7871,8.0418,4.4677,16.5306,11.616,24.5724a31.787,31.787,0,0,0,13.4031,9.3822,40.638,40.638,0,0,0,15.637,3.1274,53.086,53.086,0,0,0,25.0191-6.7015,71.1129,71.1129,0,0,0,9.8289-5.808,435.9061,435.9061,0,0,0-24.5723,36.6352A211.2826,211.2826,0,0,0,444.8412,769.86a97.5349,97.5349,0,0,0-7.1484,23.6788,53.3909,53.3909,0,0,0,3.5742,29.4868,47.936,47.936,0,0,0,20.5514,22.3385,52.2525,52.2525,0,0,0,29.4868,6.7016,70.1,70.1,0,0,0,26.36-8.0418C522.5792,839.5552,529.2807,834.6407,535.5355,829.7262ZM828.17,764.9446c4.4677-16.9772,10.7224-34.4014,19.2111-49.5915a82.499,82.499,0,0,1,14.2966-19.6578c5.3612-5.3613,10.2757-7.5952,13.4031-8.0418a13.28,13.28,0,0,1,5.3612.8935.4376.4376,0,0,1,.4468.4468c0,.4468.4468-.8936-.4468,3.5741a63.9831,63.9831,0,0,1-3.5742,12.9563c-7.1483,19.2111-20.9981,41.55-36.6351,64.7817-5.808,8.4886-11.616,16.9772-17.8708,25.4659A196.2568,196.2568,0,0,1,828.17,764.9446Zm492.7871,637.0939a195.8927,195.8927,0,0,0-15.19-25.0191,183.7363,183.7363,0,0,0-18.7644-22.3384c-6.7015-6.7016-12.9563-12.9565-19.6578-19.2111-15.19-14.7433-30.8271-29.04-46.0173-42.89a68.7536,68.7536,0,0,0,5.3613-5.8079,37.239,37.239,0,0,0,7.1484-16.0838,39.42,39.42,0,0,0,.4467-16.0837c-1.34-10.2757-4.9144-18.7644-8.9353-26.3594a167.8713,167.8713,0,0,0-13.4031-20.9983c-19.2111-25.4659-41.55-46.0172-65.2285-63.4413a278.684,278.684,0,0,0-75.5041-39.7625c-26.3594-8.9354-54.5059-11.1693-79.9717-8.4886s-48.6979,8.9354-70.59,13.85c-10.7224,2.2338-21.445,4.4677-31.7207,6.2547-4.9145.8936-10.2757,1.34-15.19,1.7871-2.6807,0-4.9145.4468-7.5951.4468h-6.7015c-18.3176-.4468-35.2948-7.1484-49.1447-16.5306s-25.0192-21.4449-34.4013-33.0609a199.67,199.67,0,0,1-23.232-35.2948c-.4468-.8936-.8935-1.34-.8935-2.2339,0,0-.4468-1.34-.8936-1.34a35.1158,35.1158,0,0,1-1.787-4.0209,251.9672,251.9672,0,0,1-12.51-33.5078c-2.6806-8.9354-4.0209-14.7433-5.808-15.6369-.8935-.4468-.8935,5.3613-.8935,9.3822.8935,10.2756,2.2338,19.6578,4.4677,27.7.8935,4.0209,2.2338,8.0418,3.1273,12.0628.4468,1.7871,2.6807,7.5952,2.6807,8.4886l.8935,2.2339c.8935,1.787,1.34,3.5741,2.2339,5.3613,1.34,3.5741,3.1273,7.1483,4.4676,10.7224a176.3264,176.3264,0,0,0,10.2758,20.5514,138.8635,138.8635,0,0,0,13.85,19.2111,152.2007,152.2007,0,0,0,36.1884,31.2739,107.6618,107.6618,0,0,0,47.3576,15.19,117.055,117.055,0,0,0,12.51.4468c4.0209-.4468,8.0418-.4468,12.0627-.8936,8.0419-.8936,15.637-1.787,23.6788-3.1274,31.2739-5.3613,60.7608-13.85,91.1411-16.9772,15.19-1.34,29.9335-1.34,44.677,1.34a208.7382,208.7382,0,0,1,44.23,13.4031c28.5934,12.5095,55.8462,31.2739,79.5251,54.9527,11.616,11.616,22.7853,24.5723,31.7207,38.4222a100.7822,100.7822,0,0,1,10.2756,20.9983c2.2339,7.1483,2.2339,13.4031.8936,17.424a14.9139,14.9139,0,0,1-7.5951,7.1483c-3.1274-2.6806-6.2548-5.3613-8.9354-8.0418-26.3594-22.7853-53.1656-44.23-82.2056-62.5478-7.5952-4.4677-14.7435-8.9354-23.2321-12.9563-8.0418-4.0209-16.53-7.5951-27.2529-9.3822a49.4821,49.4821,0,0,0-8.4886-.8936,47.1493,47.1493,0,0,0-11.1693.8936,36.5285,36.5285,0,0,0-19.6578,10.2757,42.4809,42.4809,0,0,0-6.7016,8.9354l-2.2338,4.9145-1.34,4.4677a65.7035,65.7035,0,0,0-2.6806,18.7644,60.3751,60.3751,0,0,0,4.9145,20.1046,74.0349,74.0349,0,0,0,9.8289,15.19,103.5764,103.5764,0,0,0,24.1256,20.5514c16.53,10.7226,33.9545,17.4241,51.3784,22.3385a235.9792,235.9792,0,0,0,52.7188,8.4887,179.2582,179.2582,0,0,0,26.8062-.8936c6.2548-.8936,12.9563-1.7872,19.2111-4.021,2.2338,1.7872,4.4677,4.021,7.1483,5.8079,12.5095,10.2757,25.4659,21.4449,38.869,33.0611,6.7016,5.808,12.9563,11.6159,19.6579,17.8708,3.1274,3.1275,6.2547,6.2549,9.829,9.3821,3.1274,3.1274,5.8079,6.2549,8.9354,9.382,11.1692,12.9565,21.4449,29.04,26.8062,44.677a37.9746,37.9746,0,0,1,2.2338,11.1693v2.2338l-.4468,1.7872a3.4579,3.4579,0,0,0-.4468,1.34c0,.4466-1.34.8936-4.4677,1.34a35.78,35.78,0,0,1-11.616-.8936c-17.8708-3.5741-36.1884-12.9564-54.9527-23.2321s-37.9754-21.4449-58.08-32.1674c-10.2757-5.3613-20.5515-11.1693-31.2739-16.0837-5.3613-2.6805-10.7225-4.9143-16.5306-7.5951-2.6806-1.34-5.8079-2.2338-8.9354-3.5741l-5.8079-2.2339-.8936-.4466c-.4468,0-1.34-.4467-1.7871-.4467a16.413,16.413,0,0,0-8.0418.4467,20.4022,20.4022,0,0,0-11.616,10.2756c-2.2339,4.9144-1.7871,10.7226.4468,15.637a8.0156,8.0156,0,0,0,2.2338,3.1274l2.6807,3.1275c1.34,1.34,2.2338,2.6805,3.5741,3.5741a187.4881,187.4881,0,0,0,14.2967,12.9564c9.829,8.0418,19.6578,15.637,29.9336,22.7852,20.1047,14.2967,41.1029,28.1464,61.2075,42.89a292.7887,292.7887,0,0,1,29.4869,23.2321c9.3822,8.0418,17.8708,16.53,23.6787,25.4659a50.055,50.055,0,0,1,4.9145,9.829c.4468,3.1274.8936,5.3613,0,7.5951,0,.4467-.4468.8936-.4468,1.7872a3.388,3.388,0,0,1-.8936,1.7872,2.3211,2.3211,0,0,0-.8936,1.7872c-.4468.4467-.8936.8936-1.34.8936a11.5911,11.5911,0,0,1-6.2548,2.68c-5.8079.8936-14.2967-.8936-22.3385-3.5741a138.2724,138.2724,0,0,1-25.0191-11.1693c-33.061-17.4241-63.888-40.2092-94.7153-61.2075-7.5951-5.3613-15.6369-10.2756-23.6788-15.6369a120.3555,120.3555,0,0,0-12.9563-7.1482c-2.2338-1.34-4.4677-2.2339-7.1483-3.5741l-1.7871-.8936c-.4468-.4467,0,0-1.787-.8936a17.573,17.573,0,0,0-14.2967,1.34,15.14,15.14,0,0,0-6.7015,6.2549,19.5809,19.5809,0,0,0-3.1274,8.4887,15.5354,15.5354,0,0,0,1.7871,9.829c.8935,1.34,1.34,2.6806,2.2338,4.0211.8935.8936.4468.8936.8935.8936l1.34,1.34q2.68,2.6808,5.3612,5.3613c3.5742,3.5741,7.1483,6.7016,10.2757,9.829,7.1484,6.2549,13.85,12.0629,20.9982,17.4241,13.85,11.1693,27.253,21.8919,39.7625,32.6142s24.5723,21.8918,34.848,33.5077c9.829,11.1693,18.3176,24.1257,19.211,33.9544.4468,4.9144-.4468,8.4888-3.1274,12.0629-2.6807,4.4677-5.3613,6.2549-8.9354,7.1482a28.6906,28.6906,0,0,1-14.7434-.8936,118.7506,118.7506,0,0,1-18.3176-7.1482c-12.5095-6.2549-24.1255-14.2967-36.1884-23.2321-23.232-17.4241-45.1237-36.1883-67.909-54.0591-5.808-4.4677-11.616-8.9353-17.8708-13.403a73.4629,73.4629,0,0,0-9.8289-6.2549l-5.808-3.1275c-3.1274-1.34-6.7016-2.6805-10.7225-2.2338a21.5093,21.5093,0,0,0-10.7224,3.1274,22.5727,22.5727,0,0,0-11.1692,16.9772,21.6227,21.6227,0,0,0,1.34,10.7226,13.9752,13.9752,0,0,0,2.2338,4.4677c.4468.8936.4468.8936.8935.8936l.4468.4467c2.2339,3.1274,4.4677,6.2548,7.1484,9.382,4.9145,5.808,9.3822,11.1693,14.2966,16.5306,9.8289,10.2756,19.2111,19.6579,28.5933,28.5933,8.9354,8.9354,17.424,18.3175,23.232,27.2529a57.9949,57.9949,0,0,1,6.7015,12.5095,16.82,16.82,0,0,1,.8936,7.1482c-.4468.4467-.4468,1.34-3.5742,3.1274a34.1049,34.1049,0,0,1-11.1693,2.6806,72.8533,72.8533,0,0,1-28.5932-4.9144,99.3313,99.3313,0,0,1-14.2966-6.7016c-5.3613-2.6805-10.7225-5.3612-15.637-8.0418-20.5514-11.1692-39.7625-22.7851-58.5269-34.848a759.8821,759.8821,0,0,1-100.97-80.4185c-7.5951-7.1482-14.7434-14.7434-22.3385-21.8919s-14.2966-14.7433-20.9981-22.3385c-7.1484-7.5951-13.85-14.7433-20.5515-22.7851-6.2547-8.0418-12.9563-15.637-19.2111-23.2321-50.9317-62.1011-92.4814-128.223-129.1165-198.3658-4.4677-8.9354-8.9354-17.424-13.85-26.3594-4.4677-8.9354-9.3822-17.424-13.4031-26.8062-8.0418-18.3176-16.53-36.6352-25.0191-54.9526-4.4677-9.3822-8.0419-18.7644-12.0628-28.1465-1.787-4.4677-5.808-14.7433-5.808-14.7433-.4468-1.34-12.0628-25.466-18.7643-39.7625-1.34-3.5741-3.5742-8.9354-5.808-7.5952-7.5951,4.4677-5.3613,27.253,3.1273,54.9527,0,0,8.4887,24.1255,11.1693,31.2739s6.2547,14.7433,9.3822,23.2321q10.7225,24.7957,24.1255,57.6332c10.2757,20.9983,20.9982,45.1238,34.4013,70.143,6.7015,12.5095,29.04,52.7188,33.0609,59.8672,4.4677,6.7016,8.4886,13.85,12.9563,20.5514,35.2948,56.2928,79.5251,118.8406,138.9455,177.8143,7.5951,7.5951,15.19,14.7434,22.7853,22.3385,8.0419,7.1482,16.0837,14.2967,24.5723,21.4449,8.0419,7.5951,16.9773,14.2967,25.9127,20.9982q6.7016,5.3612,13.4031,10.7226c4.4677,3.5744,9.3822,6.7016,13.85,9.829s9.3822,6.7016,13.85,10.2757c4.9145,3.5741,9.8289,6.2549,14.7434,9.829q7.3718,4.6911,14.7434,9.382c4.9145,3.1275,10.2757,5.808,15.19,8.9354a177.4269,177.4269,0,0,0,15.6369,8.9354c5.3612,2.6805,10.7225,5.808,15.637,8.4888l8.0418,4.021c2.6807,1.34,5.3613,2.68,8.4886,4.4677a103.5177,103.5177,0,0,0,19.6579,7.1482c13.4031,3.5741,28.1465,5.8079,43.7834,2.2338,8.0419-1.7871,16.53-4.4677,24.5724-11.6159a31.7858,31.7858,0,0,0,9.3822-13.4031,40.6377,40.6377,0,0,0,3.1273-15.6369c0-10.2757-3.1273-18.3175-6.7015-25.019-1.7871-3.5741-3.5742-6.7016-5.808-10.2757a435.9376,435.9376,0,0,0,36.6351,24.5724,211.3057,211.3057,0,0,0,20.1046,10.2756,97.5259,97.5259,0,0,0,23.6788,7.1482,53.3908,53.3908,0,0,0,29.4868-3.5741,47.9358,47.9358,0,0,0,22.3385-20.5513,52.2516,52.2516,0,0,0,6.7016-29.4867,70.1,70.1,0,0,0-8.0418-26.36,112.396,112.396,0,0,0-13.4031-20.1046,98.1987,98.1987,0,0,0-8.9354-10.2757c3.5741,1.7872,7.1483,4.021,10.7224,5.808,13.85,7.1482,28.1465,14.2966,45.5706,18.3174,8.4886,1.7872,18.3176,3.1275,29.4868,0a31.744,31.744,0,0,0,8.0418-3.5741c2.6807-1.7872,5.3613-3.1274,7.1484-5.3613,2.2338-2.2338,4.4677-4.021,5.8079-6.7015a30.9679,30.9679,0,0,0,4.4677-7.5952l1.7871-4.021a13.2163,13.2163,0,0,0,.8936-4.4677,30.396,30.396,0,0,0,.8936-8.9354,46.8223,46.8223,0,0,0-3.1275-16.0836,71.4157,71.4157,0,0,0-14.7433-23.2321c-14.7434-16.9772-31.2739-29.4867-47.3576-41.55-16.5306-12.0629-33.061-23.2321-49.5915-34.4014q-8.712-6.0315-17.424-12.0628c21.4449,11.1692,41.9963,23.6787,63.888,35.2949,8.4886,4.4677,16.9772,8.9354,25.9126,12.9564,4.4677,2.2339,9.3822,4.0211,13.85,5.808l7.1483,2.68,7.5952,2.2339a86.284,86.284,0,0,0,16.0837,2.6805c5.808.4466,12.0629.4466,19.6579-2.6805q2.6805-1.34,5.3613-2.6806a23.4149,23.4149,0,0,0,4.9145-4.4677c3.1274-3.1274,4.9145-7.1482,6.2547-10.7225,2.2339-7.5952,1.7871-13.85.8936-19.658C1329.4455,1420.3559,1325.4246,1410.9739,1320.9569,1402.0385Zm-199.7061-131.35c-16.9772-4.4677-34.4013-10.7224-49.5915-19.211a82.4992,82.4992,0,0,1-19.6579-14.2967c-5.3612-5.3613-7.5951-10.2757-8.0419-13.4031a13.28,13.28,0,0,1,.8936-5.3613.4376.4376,0,0,1,.4468-.4468,22.7288,22.7288,0,0,0,3.5741.4468,63.9952,63.9952,0,0,1,12.9563,3.5741c19.2112,7.1484,41.55,20.9983,64.7816,36.6352,8.4886,5.8079,16.9772,11.616,25.4659,17.8708A187.0828,187.0828,0,0,1,1121.2508,1270.6881Z"></path>
  </g>
</svg>
