<?xml version="1.0" encoding="UTF-8"?>
<svg xmlns="http://www.w3.org/2000/svg" id="Ebene_1" data-name="Ebene 1" width="2400" height="1800" viewBox="0 0 2400 1800">
  <defs>
    <style>.cls-1{fill:#fff;}</style>
  </defs>
  <g id="thinking_responsibly" data-name="thinking responsibly">
    <path class="cls-1" d="M1896.4732,1041.4762c-4.0406-7.273-11.3136-13.3339-18.9908-16.5664a53.9623,53.9623,0,0,0-20.607-3.6365,95.67,95.67,0,0,0-17.3745,1.6162,151.2865,151.2865,0,0,0-18.1826,4.8487c-.4041-.8081-.8082-1.2121-1.2122-2.02-2.4243-3.2324-4.8487-6.4649-8.0811-8.8893-2.8285-2.8285-6.465-4.4447-9.6974-6.0609-1.6162-.8082-3.2324-1.2121-4.8488-2.02-1.6162-.4041-3.2324-1.2121-4.8487-1.6162a74.7972,74.7972,0,0,0-18.5868-2.02,126.1874,126.1874,0,0,0-33.1328,4.8488c-21.0111,5.2527-40.81,13.3339-60.2048,22.2232s-38.79,18.9908-58.1844,30.3044c-38.79,22.2232-77.5793,47.2749-117.177,74.7509-10.1015,6.869-55.3561,38.3856-60.2048,42.0222a476.002,476.002,0,0,1-66.67,35.9613,603.5043,603.5043,0,0,1-155.5627,48.4871c-14.142,2.4242-28.2841,4.04-42.83,5.2527-14.5462.8081-29.0923,1.2121-42.83,0-6.869-.8082-13.7379-1.6164-20.2029-3.6367a49.6733,49.6733,0,0,1-14.5461-6.4648c-1.2122-1.2121-1.6163-2.02-1.6163-2.4243v-3.6363c.4041-3.2325,2.8285-7.273,6.465-11.7178,4.0406-4.4446,9.2933-8.4852,15.3542-12.5258a210.8592,210.8592,0,0,1,18.9908-10.5054,367.8225,367.8225,0,0,1,41.214-16.9705c27.88-9.6975,56.5683-17.3745,84.4483-23.84,28.2841-6.4648,56.1641-13.3339,83.2361-21.415,27.072-7.6772,53.3358-16.5663,78.3874-27.88,12.5258-5.6568,25.0517-11.7177,36.7694-19.3948,12.1217-7.677,23.4353-16.5664,33.5368-28.6882a104.9148,104.9148,0,0,0,12.93-20.607c3.6365-7.6771,5.2527-16.5664,6.0609-25.0517a64.8238,64.8238,0,0,0,0-12.5258,31.1871,31.1871,0,0,0-.8082-6.0609c0-1.2121-.404-2.02-.404-3.2324l-1.2122-4.0406a53.8366,53.8366,0,0,0-17.7785-25.4557c-7.273-5.6567-14.5462-8.8893-21.8192-11.7176a135.66,135.66,0,0,0-20.2029-5.2527,242.856,242.856,0,0,0-37.1735-4.0406c-23.8394-.8082-46.0626.4041-67.8818,2.02-43.2343,3.6365-83.64,9.2933-122.0258,15.7582-38.3856,6.0609-75.1549,12.93-110.308,19.7989S936.43,1037.0319,931.985,1037.84s-8.4853,2.4243-12.5258,3.6365c-33.5369,10.5055-62.2251,29.0922-87.2768,49.2952-25.4557,20.2029-48.0829,42.83-69.4981,66.2656s-41.618,47.6789-62.225,72.7306c-5.2528,6.0609-25.0516,31.1125-25.86,32.3247-7.2731,9.6975-14.95,20.6069-25.4557,33.5368-2.4244,3.2324-6.465,7.6772-4.4447,8.8893,6.0609,3.2325,25.4557-10.91,46.8708-32.3247l1.2122-1.2121c.4041-.4039,4.0406-4.4445,5.6568-6.0609,12.93-14.142,31.9206-35.1531,56.9723-61.4169,12.5259-12.93,26.6679-27.476,42.4262-42.0223,8.0812-7.273,16.1624-14.95,25.4557-22.6271,8.8893-7.6773,18.5867-14.95,28.2841-22.2233,20.203-14.5461,42.83-28.6882,68.2859-37.1734,3.2325-1.2122,6.465-2.02,9.6974-3.2325,3.2325-.8081,6.465-2.02,9.6974-2.4243,3.2325-.8082,200.8172-35.9612,274.76-47.6789,37.1735-5.6568,75.155-11.3136,114.3486-15.3542,19.3948-2.02,39.1937-3.6365,58.9926-4.0406s39.5977-.4041,57.78,2.8285c8.8894,1.6162,17.3745,4.0406,22.6274,7.273,2.4243,1.6162,4.04,2.8284,4.4446,3.6365,0,.4041.4041.8082.4041,1.2121a8.2185,8.2185,0,0,1,.4041,2.02c0,.8082.4041,1.6162.4041,2.4244.4041,6.4649-.4041,12.5258-4.0406,18.5867-3.2324,6.0609-8.8893,12.5259-16.1624,18.5867-14.142,11.7177-32.7287,21.4151-52.1235,29.9s-40.4059,15.7582-61.417,22.2232c-21.4151,6.869-42.83,12.93-65.0535,18.5866-10.91,2.8285-22.6273,5.6569-33.9409,8.8893s-22.6273,6.4649-34.345,10.1015c-23.0314,7.273-45.6586,14.95-68.2859,25.4557-11.3136,5.2527-22.6273,10.91-33.5368,18.1826a115.8228,115.8228,0,0,0-16.1624,12.5257c-5.2527,4.8488-10.5055,10.1015-14.95,17.3745a51.3129,51.3129,0,0,0-8.0812,25.4557,19.13,19.13,0,0,0,.4041,6.869,11.1866,11.1866,0,0,0,.4041,3.6366c.4041,1.2122.4041,2.8285,1.2122,4.0406a38.6618,38.6618,0,0,0,8.0811,13.7381,53.3352,53.3352,0,0,0,21.4151,13.7381,101.5524,101.5524,0,0,0,20.2029,5.6569c13.3339,2.4243,25.86,2.8285,38.3856,2.8285s24.6476-1.2121,36.7694-2.4243c48.083-5.6569,94.1456-17.7786,137.784-33.5368a643.9511,643.9511,0,0,0,123.238-59.8006c9.6974-6.0609,18.9908-12.5258,27.88-18.9908s17.3745-12.5258,26.2638-18.9909c17.3745-12.5257,35.1532-24.2435,52.5277-35.5571s35.1531-22.2232,52.5276-32.7288c17.3745-10.1014,35.1531-19.7988,52.5276-28.6882a466.2987,466.2987,0,0,1,52.9317-23.0314c17.3745-6.4649,35.1532-11.3135,51.3156-12.5258,8.0811-.4041,15.7582.4041,19.7988,2.8285.4041.404.8082.404,1.6162.8081.4041.4041.8082.8082,1.2121.8082l.4041.4041.4041.4041c.4041.404.4041.8081.8082.8081a19.6877,19.6877,0,0,1,1.2121,2.8285c0,.4041.4041.8082.4041,1.6162a3.6423,3.6423,0,0,0,.4041,2.02c.8081,5.6568-.8082,12.93-3.6365,20.2029-2.4244,7.273-6.0609,14.5462-9.6974,21.8192a273.7092,273.7092,0,0,1-27.476,40.406,455.8563,455.8563,0,0,1-31.5165,35.9613,827.2654,827.2654,0,0,1-66.2656,61.0128c-22.2232,18.1826-44.0424,34.345-65.0535,48.487-42.0221,28.6881-80.4077,50.1034-112.3283,67.0737-8.0811,4.0406-15.7582,8.0812-22.6273,11.3136-10.1015,4.8487-6.869,3.2324-8.0812,4.0406a39.0424,39.0424,0,0,0-4.8487,2.8284c-6.465,3.6366-12.93,6.8691-18.5867,10.1015s-10.5056,6.4648-14.5462,9.2933c-8.4852,5.6569-13.3339,10.5054-12.93,14.142.4041,2.02,6.0609,0,9.6974-1.2121,14.95-4.8487,27.4759-8.8893,38.79-12.93,2.8285-.8082,12.5259-4.4446,12.5259-4.4446l5.6568-2.4242c14.95-6.4648,29.9-12.93,44.4464-19.799,58.5886-28.2841,114.3486-61.8209,167.6844-103.8431,26.6679-21.0111,52.9317-44.0425,77.5794-70.3064,12.1217-13.3338,24.2435-27.0719,35.5571-42.4261s21.8191-31.5166,29.9-50.5074a102.8771,102.8771,0,0,0,8.4853-31.5165c3.2324-.8082,6.0608-1.6162,8.8893-2.4244,9.2933-2.02,17.3745-2.8284,23.4354-2.4244a15.34,15.34,0,0,1,7.273,2.4244,6.1942,6.1942,0,0,1,2.8284,4.0406c1.6162,4.4447,1.2122,12.5259-.8081,21.4151a148.6824,148.6824,0,0,1-9.6974,27.072c-7.273,16.5664-17.7786,35.153-31.5166,56.1641-11.7176,17.7787-25.4556,36.7692-40.81,56.1643-13.738,17.3744-29.0923,35.5571-47.2749,55.76-18.5868,21.0111-35.5572,39.1938-51.72,55.76a1047.692,1047.692,0,0,1-119.6014,104.2471c-47.6789,35.1532-92.5295,60.6088-136.5718,78.3875-24.6476,9.6975-48.4871,16.5663-71.5185,20.2029a219.43,219.43,0,0,1-35.5571,3.2324h-48.487c-44.4465,0-86.8727-.4039-126.8745,1.2122-45.2546,1.6163-86.0645,6.0609-122.0257,12.93a499.4871,499.4871,0,0,0-52.5276,12.5257,373.6952,373.6952,0,0,0-45.6587,16.5663c-26.2638,11.3136-49.6992,24.6475-67.8819,37.9817l-12.1217,9.2933c-4.0406,3.2324-4.0406,3.6366-4.4447,3.6366l-3.2325,2.8284a99.5772,99.5772,0,0,0-11.3136,11.3136c-2.02,2.02-3.6365,4.0406-5.2528,5.657a283.4853,283.4853,0,0,1-26.6679-19.799c-20.607-17.3745-42.0221-38.79-64.6494-64.6494A934.3666,934.3666,0,0,1,662.478,1471.8c-26.6679-39.1937-47.2749-73.9427-63.0332-105.4592-8.0812-15.7584-14.95-30.3044-20.2029-44.4465-5.6568-14.142-10.1015-27.4759-12.5259-40.0019a91.8761,91.8761,0,0,1-2.02-17.3745c0-5.2527.8081-10.1015,2.02-12.5257a17.1135,17.1135,0,0,1,2.02-2.8285l.4041-.4039h1.2123l.404.4039A31.1244,31.1244,0,0,1,576.01,1252.8c7.6771,6.4648,14.5462,16.1623,20.203,26.2638a149.5723,149.5723,0,0,1,13.3339,33.1328c2.4244,8.0812,6.0609,19.3948,6.0609,35.5572,0,3.2324-.8081,7.6772,1.2122,7.6772,3.2325,0,6.4649-4.8488,8.8893-12.93s3.6365-19.799,2.02-32.7287v-1.6163a14.29,14.29,0,0,1-.4041-2.4243c-1.2122-5.2527-2.8284-13.3339-6.0609-23.4354a142.6955,142.6955,0,0,0-16.9705-34.7489,75.8369,75.8369,0,0,0-7.273-9.6975,62.125,62.125,0,0,0-10.5056-9.6975,28.3288,28.3288,0,0,0-3.6365-2.4243q-2.4243-1.2122-4.8487-2.4242a25.6548,25.6548,0,0,0-10.91-1.6164c-.8081,0-2.02.404-2.8284.404-.8081.404-2.02.404-2.8284.8082-1.6162.8081-3.6365,1.6163-5.2527,2.4242s-2.8284,2.02-4.4447,2.8285a11.4607,11.4607,0,0,0-4.0406,3.6366,41.5907,41.5907,0,0,0-9.6974,17.3745c-.404,1.6163-.8081,2.8284-1.2122,4.4445v.8082c-3.2324,4.4445-24.2435,32.3247-27.88,36.7692-3.6366,4.8488-7.6771,9.6976-12.1218,14.95-8.8893,10.1014-18.5867,21.0111-29.0922,31.9207s-21.8192,20.2029-32.3247,28.6881c-5.2528,4.0406-10.5055,8.0812-15.3542,11.3136s-9.6975,6.4648-14.1421,9.2933-8.4852,5.2527-12.1218,7.273-6.869,3.6366-9.2933,5.2527c-3.2325,2.02-2.8284,1.6163-3.6366,2.4243a1.2515,1.2515,0,0,1-.8081.4039,47.149,47.149,0,0,0-10.5055,7.6772c-1.2122,1.2122-2.02,2.8285-2.8284,3.6367a3.6925,3.6925,0,0,0-1.2122,2.02c0,.404.4041.404,1.2122.8082.8081,0,2.02.8082,2.4244.404a20.4648,20.4648,0,0,0,5.2527-.8082c1.6163-.404,3.2325-.8082,4.4447-1.2121,2.8284-.8082,5.6568-1.2121,8.0811-2.02,7.2731-2.02,13.7381-5.2527,20.607-8.0812,6.869-3.2324,14.1421-6.4648,21.8192-10.91,15.3543-8.4852,33.1328-20.203,54.1439-39.5977a337.103,337.103,0,0,0,27.0719-28.2841c7.2731-8.4852,12.93-16.1624,18.1827-23.4354,2.8284-4.0406,5.6568-8.0812,8.0811-11.7178a83.5752,83.5752,0,0,0,1.6163,8.8893c4.4446,21.4151,12.1217,43.2344,21.011,64.6494,18.1826,43.6383,43.6383,88.0848,73.5387,131.7231s62.6291,82.832,96.166,115.9649c33.5369,32.7287,68.2859,59.3967,103.035,74.3469a161.0341,161.0341,0,0,0,25.86,8.4851,108.3021,108.3021,0,0,0,25.0517,2.8285c2.02,0,4.0406-.404,6.0609-.404,2.02-.4039,4.0405-.4039,5.6568-.8081.8081,0,1.6162-.404,2.8283-.404a9.5135,9.5135,0,0,1,3.2325-.8082c1.2122-.4039,2.4244-1.2121,3.6365-1.6163a8.7945,8.7945,0,0,0,3.2325-2.02c9.2934-5.6569,10.1015-17.3745,8.0812-24.6475a46.711,46.711,0,0,0-4.8487-11.7178,8.4539,8.4539,0,0,1-1.6162-2.4242,20.9889,20.9889,0,0,1-1.2122-2.02,84.7036,84.7036,0,0,0-23.0313-23.4354c-1.6162-.8081-2.8284-2.02-4.0406-2.4242a350.3265,350.3265,0,0,1,37.9815-20.203,428.3706,428.3706,0,0,1,70.71-23.84c45.6586-10.91,96.9741-16.9705,161.6235-18.5866,25.86-.8082,54.952-.8082,94.1456,0l78.3874.8081a262.115,262.115,0,0,0,29.0922-1.6163c37.1735-4.0406,76.7712-15.7584,118.7933-33.941,38.79-17.3745,79.6-40.81,120.4095-69.094,28.6881-19.799,56.1641-41.618,84.8523-66.67,26.6679-23.4353,49.6992-44.85,70.3062-66.2657,19.3948-20.2029,38.3856-41.618,57.3764-65.4576,17.3745-21.8192,32.7288-43.2343,46.0626-63.8412a524.4533,524.4533,0,0,0,35.5572-63.4373,312.2434,312.2434,0,0,0,12.5258-32.7288c3.2324-10.91,6.0609-23.0314,5.2527-36.7693C1902.13,1054.81,1900.11,1047.5371,1896.4732,1041.4762ZM872.5883,1630.19a177.4327,177.4327,0,0,1,12.93,18.9909c3.2325,5.6569,6.0609,10.91,7.6771,15.7583.8081,2.4243,1.6162,4.8488,2.02,6.4649v2.02a.8692.8692,0,0,1-.8081.8081c-.4041,0,0,0-1.2122.404h-3.2325a63.0518,63.0518,0,0,1-14.95-.8082,123.8236,123.8236,0,0,1-15.3542-4.04,151.6254,151.6254,0,0,1-25.86-12.5258l6.465-5.2527a71.4544,71.4544,0,0,1,9.6974-6.869,34.9552,34.9552,0,0,0,4.0406-2.8285c6.4649-4.4448,12.5258-8.4854,18.5867-12.1218Zm1058.634-815.7947c-1.2121,5.2527-2.4244,10.5056-3.6365,15.3542s-2.4244,9.6974-4.0406,14.5462c-1.2121,4.8487-2.4244,9.2933-3.6365,13.7379-1.6162,4.4447-2.8285,8.4853-4.4447,12.5259-2.8284,8.0811-5.2527,15.7582-8.0811,22.6273s-12.1218,29.0923-14.1421,33.1329l-6.465,12.93-.4041.8082c-7.273,11.3135-17.3744,17.7785-26.6679,13.7379-2.8284-1.2121-2.02-3.6365-1.2121-5.2527,2.02-6.869,6.0609-19.3948,6.0609-19.3948s3.6365-8.0811,4.8488-10.5055c4.0405-9.2933,7.273-18.9908,10.91-27.88l2.8284-6.8691c.8082-2.4244,9.2934-30.7085,10.91-35.5571q1.8181-7.2732,3.6365-14.5462c9.2933-39.1937,15.3542-82.0238,15.7583-135.7637,0-13.3339-.8082-27.476-1.6163-42.0221-.404-7.273-1.6162-14.95-2.4243-22.6273-.4041-4.0406-.8082-7.6771-1.2122-11.7177-.8081-4.0406-1.2121-8.0812-2.02-12.1218a599.0538,599.0538,0,0,0-27.0719-106.6714,561.2954,561.2954,0,0,0-63.0332-124.8542,587.9581,587.9581,0,0,0-68.69-86.0644c-22.6273-23.8395-45.2546-43.2344-67.8818-61.417-5.6568-4.4447-11.3136-8.4853-16.9706-12.93l-8.4852-6.0609-8.4853-6.0609c-5.6568-4.0406-11.3136-8.0812-17.3744-11.7177l-8.8894-5.6568c-2.8284-2.02-5.6568-4.0406-8.8893-6.0609-2.4244-2.02-5.2527-3.6365-8.0812-6.0608-1.6162-1.2122-6.0609-4.4447-6.0609-4.4447l-.8082-.4041c0-.4041-.404-.4041-.404-.8082l-2.4244-2.4243c-1.2121-1.2122-3.6365-2.8285-2.8285-4.0406,1.2122-1.6162,4.4447-2.02,9.2933-2.02a60.7381,60.7381,0,0,1,8.0812.8081,45.2494,45.2494,0,0,1,9.2933,2.4244,3.1263,3.1263,0,0,1,1.2121.4041c.4041,0,.8082.4041,1.2122.4041-1.2122-.8082,5.6568,2.4244,10.5055,5.2527a398.8322,398.8322,0,0,1,37.9815,21.4151c7.273,4.4446,14.95,9.6974,22.6273,15.3542,4.0406,2.8284,8.0812,5.6567,12.1218,8.8893,4.0406,2.8285,8.4852,6.0609,12.5258,9.2933s8.4853,6.869,12.93,10.1015c4.4446,3.6365,8.4852,7.273,12.93,11.3136,8.8893,7.6771,17.7786,15.7582,26.6679,24.6476a600.0931,600.0931,0,0,1,53.3358,59.3967,591.0717,591.0717,0,0,1,88.0848,157.5829c1.2121,3.6365,2.8284,7.273,4.04,11.3136,1.2122,3.6365,8.8894,28.2841,8.8894,28.2841s5.6568,20.607,7.6771,28.2841c1.6162,7.6771,3.2324,14.95,4.8487,22.2232s2.8285,14.95,4.0406,22.2232,2.4244,14.5462,3.2324,21.8192c1.2122,14.5461,2.8285,28.6882,3.6365,42.83A704.3976,704.3976,0,0,1,1931.2223,814.3951ZM746.9261,948.9466c4.8487,8.8894,9.2933,16.9706,13.738,24.6477,6.4649,10.5055,4.4446,7.273,5.2527,8.4852.4041.8082,2.8284,4.0406,2.8284,4.0406,3.6365,5.2527,6.465,10.1015,10.1015,14.1421a130.6338,130.6338,0,0,0,9.2934,10.5055c5.6568,6.0609,9.2933,9.2933,10.91,9.2933.8081,0-1.6162-4.0406-3.6365-6.869-6.869-10.5056-12.5258-19.3948-16.97-27.88-1.2122-2.02-4.8487-8.4852-4.8487-8.4852l-3.6365-6.465a326.8216,326.8216,0,0,1-22.2233-46.4667c-12.1217-32.3247-22.2232-64.6494-28.2841-98.59a495.451,495.451,0,0,1-8.4852-104.2471c.8081-35.5571,5.2528-71.5184,12.1217-108.2877,1.6162-9.2933,4.0406-18.1826,6.0609-27.4759s4.8487-18.1826,7.6771-27.4759c5.2528-18.5868,12.1218-36.7694,19.3948-55.3561,3.6365-9.2933,7.6771-18.1827,12.1218-27.476,2.02-4.4447,4.4447-8.8893,6.869-13.738l3.6365-6.869,3.6365-6.8691c9.6974-18.1826,21.4151-35.5571,33.9409-52.5276A145.9477,145.9477,0,0,1,826.5256,382.86c3.2325-4.0405,7.273-7.6771,10.91-11.7176s7.677-7.273,11.3136-10.91l2.8284-2.8284,8.4853-6.465a.3957.3957,0,0,0,.404-.4041l.4041.4041s3.2325,20.607,4.0406,23.4354c.8081,3.2324,1.2122,6.4649,2.8284,10.91A193.5046,193.5046,0,0,0,884.71,421.2459a122.2375,122.2375,0,0,0,12.5258,16.9705,126.2221,126.2221,0,0,0,14.95,14.5462c9.6974,8.4852,19.7988,16.1623,27.0719,23.8394a61.8371,61.8371,0,0,1,8.4853,10.91c1.6162,3.6365,2.4243,6.0609,2.4243,9.2933s-1.2121,6.8691-3.2324,11.3136c-.4041,1.2122-1.2122,2.02-1.6163,3.2324s-1.6162,2.4244-2.4243,3.6366a81.928,81.928,0,0,1-5.2528,7.273c-7.2731,9.6973-16.1624,19.3947-25.0516,30.3044s-18.5868,23.0314-25.86,37.9815a95.0558,95.0558,0,0,0-8.0811,24.2435c-1.2122,4.0406-1.2122,8.4852-1.6163,12.93-.404,4.0406-.404,8.0812-.404,12.1218-.4041,31.5165,8.8892,63.0332,21.4151,92.1253,6.0609,14.5462,13.3339,28.6882,20.607,42.4262,2.02,3.6365,3.6365,6.869,5.6568,10.5055s4.0406,7.2731,6.0609,10.5056c2.02,3.6365,4.0406,6.869,6.465,10.5056a88.703,88.703,0,0,0,6.8689,10.1014c18.1827,27.476,40.0018,52.9317,63.8413,77.1753,11.7177,12.1217,24.2436,24.2435,37.5775,35.9612,3.2325,2.8284,6.465,5.6568,10.1015,8.4852l10.91,8.4853a99.2582,99.2582,0,0,0,12.93,7.6771,12.1018,12.1018,0,0,0,4.0406,1.6162l2.02.8082c.4041.404,1.6162.404,2.4244.8081l4.0406.8082h1.6162c2.02,0,4.4446.4041,6.4649-.4041,4.4447-.4041,8.0812-2.8285,11.3136-5.6568a59.3644,59.3644,0,0,0,4.0406-5.2527,10.1319,10.1319,0,0,1,1.6162-2.8285l.8082-1.6162.4041-1.2121a28.1158,28.1158,0,0,0,1.6162-9.2933,51.5146,51.5146,0,0,0,.4041-7.6771c0-9.6974-1.2122-18.5867-2.4244-27.4759s-2.8285-16.9706-4.0406-25.4557c-1.2121-8.0812-2.8284-16.5664-2.8284-23.4354a120.6357,120.6357,0,0,1,8.4852-44.4464c5.2527-14.1421,12.93-27.476,20.607-40.4059,16.1624-25.86,34.345-50.1033,48.8912-77.1752a110.8753,110.8753,0,0,0,10.1014-23.4354c1.2122-4.0406,2.4244-8.4853,3.2325-12.5258.404-2.02.404-4.4447.8081-6.465l.4041-3.2324V636.61c.4041-17.7786-5.6568-35.1532-14.1421-48.4871-8.4852-13.738-18.5867-24.6476-29.0922-34.7491-11.3136-10.91-24.2436-18.5867-37.5774-24.6476a140.7562,140.7562,0,0,0-25.0517-8.4852,168.5288,168.5288,0,0,0-4.8488-26.2639c-2.4244-10.91-4.8487-20.607-5.6568-29.9s.4041-17.3745,3.6365-24.2435a56.951,56.951,0,0,1,15.3542-18.9908,91.5584,91.5584,0,0,1,23.0314-12.93c16.97-6.8691,35.9612-11.3136,54.952-17.3745a190.1261,190.1261,0,0,0,28.6882-10.91,100.0059,100.0059,0,0,0,27.476-18.5867,89.3411,89.3411,0,0,0,18.9908-28.2841,66.53,66.53,0,0,0,4.4446-34.345,90.0723,90.0723,0,0,0-3.6365-15.7583c-1.6162-4.8487-3.2324-9.2933-4.4446-13.3338-2.8285-8.4853-5.2528-15.7583-6.465-23.0314a63.514,63.514,0,0,1,0-21.4151c1.2121-7.273,3.6365-14.5461,6.465-23.0314a230.9084,230.9084,0,0,0,7.677-26.6679q.6061-3.6366,1.2122-7.273l.8081-6.465c.4041-4.0406,1.2122-8.4852,1.6163-13.3339a94.8665,94.8665,0,0,0,.404-15.3542,35.3094,35.3094,0,0,0-6.869-18.9908,21.1783,21.1783,0,0,0-4.0406-4.4446q-2.4243-1.8183-4.8488-3.6365l-4.8487-2.4244a22.774,22.774,0,0,0-4.8488-1.6162l-2.4243-.4041-6.465-.8082h-8.0812c-10.1014.8082-18.5867,2.8285-27.4759,4.8488a256.9891,256.9891,0,0,0-25.0517,7.6771c-16.5664,5.6568-32.3247,11.7176-48.083,18.5867-31.5165,13.738-62.6291,29.0923-92.9335,47.6789-7.6771,4.4446-14.95,9.6974-22.2232,14.5461L998.25,201.4382s-2.4244,2.02-3.6365,2.8285a187.73,187.73,0,0,0-25.0516,25.4556c-2.4244,2.8285-5.6568,6.8691-3.6365,7.6771,3.2325,1.2121,8.0812-1.2121,14.95-5.6568s15.3543-10.1015,25.4558-16.9705l1.2121-.8082c.4041-.4041.8082-.8081,1.2122-.8081a39.3412,39.3412,0,0,1,6.0609-4.0406c16.97-11.7177,43.2343-27.072,78.7914-42.83A587.4668,587.4668,0,0,1,1153.813,142.85c11.3136-3.6365,23.0314-7.273,35.1532-10.5056,6.0609-1.6162,12.5258-2.8284,18.5867-4.0406a146.3022,146.3022,0,0,1,18.5868-2.4243h4.0405c1.2122,0,2.4244.404,3.6365.404,2.02.8082,3.6365,1.2122,4.0406,2.02a6.2256,6.2256,0,0,1,1.2122,2.8285,37.1115,37.1115,0,0,1,.404,7.273c-.404,6.0609-1.6162,13.3339-2.8284,21.0111-.4041,2.02-.4041,4.0406-.8082,5.6568s-.4041,3.2324-.8082,4.8488A94.3263,94.3263,0,0,1,1232.2,180.023c-2.02,6.8691-4.8488,14.5462-7.6771,22.6273-2.4244,8.4853-4.8488,17.7786-5.2527,27.476a100.5465,100.5465,0,0,0,3.2324,29.0923c2.4244,9.2933,5.6568,17.7785,8.4853,25.86,2.4243,7.6771,4.4446,14.95,4.4446,21.4151s-2.02,12.93-5.2527,19.7988a51.2957,51.2957,0,0,1-14.142,16.9705,84.4164,84.4164,0,0,1-21.4151,12.1218c-16.1624,6.869-34.7491,11.3136-54.1438,17.7786a223.7881,223.7881,0,0,0-29.4963,11.7176c-9.6974,4.8488-19.7988,11.3136-28.2841,19.7989a75.6028,75.6028,0,0,0-11.3137,14.142,85.268,85.268,0,0,0-8.0811,17.3745c-3.6365,12.5259-3.2325,25.4557-1.6162,36.7694,2.02,11.3136,4.8486,21.8191,7.273,31.9206.8081,4.0406,1.6162,7.6771,2.4244,11.3136-11.7177,0-23.0313,1.6162-34.345,6.0609a71.7745,71.7745,0,0,0-19.3948,11.3136,72.6173,72.6173,0,0,0-8.0812,7.6771,78.8791,78.8791,0,0,0-6.869,9.2933,45.5171,45.5171,0,0,0-7.2731,22.6273v3.2324c0,1.2121.4041,2.4244.4041,3.6365,0,2.4244,1.2122,4.8488,2.02,7.273a25.0145,25.0145,0,0,0,4.4447,6.8691,23.0953,23.0953,0,0,0,3.2325,2.8284,37.2638,37.2638,0,0,0,3.2325,2.02l1.6162,1.2121,1.6162.8082q1.8183.6061,3.6365,1.2121c2.4244.8082,4.4447.8082,6.4649,1.2122s4.0406,0,6.0609,0a20.0818,20.0818,0,0,0,6.465-.8082c8.4853-1.6162,14.5461-5.2527,20.2029-9.2933,11.3137-7.273,20.203-15.7583,28.6882-26.2638,4.0407-5.2527,8.0813-11.7177,10.1016-18.5867a48.8636,48.8636,0,0,0,2.02-7.2731,119.301,119.301,0,0,1,34.3449,15.3542c2.4244,1.6162,4.4447,3.2325,6.465,4.8488a70.2287,70.2287,0,0,1,6.0609,5.2527,112.98,112.98,0,0,1,11.3136,12.5258c6.869,8.8894,12.93,18.1827,16.1623,27.88a54.9378,54.9378,0,0,1,1.6162,29.0923c-2.02,9.2933-6.4649,18.9908-12.1217,27.88-6.465,10.1015-12.93,20.2029-19.3948,30.7085q-10.3035,15.7582-19.3948,32.7288c-12.1217,22.6273-22.6273,47.6788-28.2841,73.9427-2.8284,13.3338-5.2527,26.6679-5.2527,40.4058v5.6568a21.3432,21.3432,0,0,0,.4041,5.2527c.4041,3.6365.8082,6.8691,1.2121,10.1015.8082,6.465,2.02,12.93,2.8285,19.3948,2.02,12.5258,4.0406,25.0517,4.4447,36.7694a51.51,51.51,0,0,1-.4041,8.0811c0,.8082,0,1.2122-.4041,1.6162a2.4289,2.4289,0,0,1-.4041,1.6162l-.4041.8082h0c-.4041,0-.4041,0-1.6162-.8082-4.0406-1.6162-8.8893-4.8487-13.738-8.4852-4.4446-3.6365-9.2933-7.6771-14.142-11.7177-9.2934-8.4852-18.5867-16.9705-27.476-26.2638q-13.334-13.3339-25.4557-27.88c-8.0812-9.2933-15.7583-18.9908-23.4355-29.0923-7.273-9.6974-14.5461-19.7989-21.011-30.3044A348.1976,348.1976,0,0,1,949.7637,765.1c-11.3136-22.2232-21.4151-44.0423-28.6882-66.2656s-10.9095-44.4464-10.1014-66.2656v-4.0406c0-1.2121.4041-2.4243.4041-3.6365l.404-3.6365.8081-3.6365c.8082-4.4446,2.8284-8.8893,4.8487-13.3339,4.0406-8.8893,10.5056-17.3744,17.7786-26.2638,7.2731-8.4852,15.3542-17.3745,23.0313-26.6679,4.0406-4.8487,8.0812-9.6974,11.7177-14.95,2.02-2.8285,3.6365-5.2527,5.6568-8.0812a54.8512,54.8512,0,0,0,5.2528-9.6974,62.7849,62.7849,0,0,0,6.0609-23.8394,51.73,51.73,0,0,0-5.2528-25.0517,93.2575,93.2575,0,0,0-12.5258-18.5867c-4.4447-5.2527-9.2934-9.2933-13.738-13.3339-9.2934-8.0812-17.7786-14.95-25.0517-21.8192-3.6365-3.6365-6.8689-6.4649-9.6973-10.5055q-4.2426-5.4547-8.4853-12.1218a85.3328,85.3328,0,0,1-7.2731-13.3339,52.587,52.587,0,0,1-3.2324-6.869l-1.6163-3.6365a5.7439,5.7439,0,0,1-.8081-2.4244c-1.2122-4.0406-2.8284-9.2933-4.0406-14.5461L891.9833,340.03c-.8081-2.02-1.2122-4.8487-2.4244-7.273-3.6365-9.6974-8.4853-17.3745-17.3745-19.7988a8.8961,8.8961,0,0,0-3.2325-.4041c-.8081,0-2.02-.4041-2.8284.4041,0,0-14.5462,7.677-18.5868,10.1014a17.5765,17.5765,0,0,0-2.8284,2.4244l-4.8486,4.4447c-2.02,2.02-4.4447,3.6365-6.0609,6.0609-3.6365,4.0405-8.0812,8.0811-11.3137,12.1217a545.2322,545.2322,0,0,0-37.9815,51.7195c-2.8284,4.4447-5.2528,8.8893-8.0812,13.3339s-5.2527,8.8893-7.6771,13.3339-4.8486,8.8893-7.273,13.3339-4.4447,9.2933-6.465,13.7379a143.02,143.02,0,0,0-6.465,13.738c-2.02,4.4447-4.04,8.8893-6.0608,13.738-2.02,4.4446-3.6365,9.2933-5.2528,13.7379a138.3211,138.3211,0,0,0-5.2528,13.738,698.5106,698.5106,0,0,0-29.0922,107.48c-12.5258,69.9021-10.91,135.36-1.2122,191.5238C709.3486,868.1349,727.5312,914.1977,746.9261,948.9466Zm320.0145-401.23a42.7547,42.7547,0,0,1-7.2731,10.91,112.5389,112.5389,0,0,1-21.8191,19.7988c-4.0406,2.4244-8.0812,4.4447-10.91,4.8488h-5.2528a8.0676,8.0676,0,0,1-3.6365-.8082.3957.3957,0,0,1-.4041-.404.3957.3957,0,0,0-.404-.4041.3958.3958,0,0,1-.4041-.4041c0-.4041-.4041-.8082-.4041-1.2121,0-.8082-.4041-1.2122,0-2.02,0-3.2325,1.2122-7.273,3.2325-11.3136a29.3665,29.3665,0,0,1,8.0811-10.5056l2.8284-2.4244a7.2494,7.2494,0,0,1,2.8284-2.02c2.02-1.2121,4.0406-2.8284,6.0609-3.6365,8.4853-4.4446,18.1827-6.4649,28.6882-6.4649h1.6162C1068.1528,543.6758,1067.7487,545.6961,1066.9406,547.7164Zm226.6769,99.8025c10.1015,12.93,24.2435,23.4354,40.0018,28.2841.8082.4041,1.6162.4041,2.4244.8082a113.8565,113.8565,0,0,0,.4041,26.2638,172.972,172.972,0,0,0,8.4852,35.9612,233.2638,233.2638,0,0,0,13.738,32.7288,75.05,75.05,0,0,0,4.4447,7.6771c1.2121,2.4244,9.6974,16.5664,12.5258,21.0111,5.2527,9.2933,10.5056,18.1826,15.3542,27.4759,4.8488,8.8894,9.2933,18.1827,13.3339,27.072,2.02,4.4447,3.6365,9.2933,5.6568,13.738.8082,2.4244,1.6162,4.4447,2.4244,6.8691l1.2121,3.2324,1.6162,4.0406a54.1794,54.1794,0,0,0,9.2933,16.1623,43.2849,43.2849,0,0,0,16.5664,11.3136c6.465,2.4244,12.93,2.4244,18.9908,2.02s11.7177-2.4244,16.9706-4.4447a82.7779,82.7779,0,0,0,14.5461-7.6771,36.6133,36.6133,0,0,0,6.465-4.4446l11.7176-9.2933s9.2933-8.0812,10.91-9.6974l5.2527-5.2527c27.072-27.88,46.0627-60.2048,61.0129-92.5295s25.4556-65.0534,36.3653-96.1659c5.6568-15.7583,10.91-31.5165,16.1623-47.2749l1.6162-5.2527v-.4041a10.1319,10.1319,0,0,1,1.6162-2.8285,8.0431,8.0431,0,0,1,4.8488-3.2324,8.8775,8.8775,0,0,1,5.6568.4041c.4041.4041.8082.4041,1.2121.8082s.8082.404,1.2122.8081c.8081.8082.8081,1.2121,2.8284,3.6365a67.6761,67.6761,0,0,0,21.0111,18.9908,69.0909,69.0909,0,0,0,27.072,8.8894,80.8027,80.8027,0,0,0,27.88-2.4244c8.8894-2.4244,18.1827-6.465,25.86-12.93a61.6394,61.6394,0,0,0,16.9705-23.8395c.8082-2.02,2.02-2.8284,3.2324-4.0406a6.955,6.955,0,0,1,4.8488-.8081c1.6162.4041,3.2324.8081,4.0405,2.4243l.4041.4041a5.8108,5.8108,0,0,0,.8082,1.2122l5.6568,7.6771a138.9627,138.9627,0,0,0,18.1826,19.7988,117.6431,117.6431,0,0,0,22.6274,15.3542c2.02,1.2121,4.04,2.02,6.4649,3.2324l3.2324,1.2121,2.8285,1.2122.8082.404c.8081.4041,2.02.4041,3.2324.8082,2.4244.4041,4.0406.8082,6.869,1.2121s5.2527,0,7.6771,0c2.02,0,4.4447-.404,6.8691-.404,2.02,0,4.4446-.4041,6.0609-.4041h.8081c0-.4041.4041-.8082.4041-1.2122.4041-.8081.8082-1.2121.8082-1.6162s.4041-.404.8081-.8081h.4041l.4041-.4041a3.3191,3.3191,0,0,0,.4041-2.8285c-.8082-2.4244-3.6365-4.0406-6.8691-5.6568a86.0034,86.0034,0,0,0-10.91-3.2324,13.6347,13.6347,0,0,1-4.8487-1.6162c-1.6163-.8082-3.6366-1.6162-5.6568-2.4244l-.8082-.4041c-.4041,0-.8082-.404-1.2121-.404-1.6162-.8082-3.6365-1.6163-5.6568-2.4244a130.7535,130.7535,0,0,1-13.3339-8.0812,94.2925,94.2925,0,0,1-14.1421-12.1218c-4.8487-4.8487-9.2933-10.5055-14.5461-17.3744l-2.02-2.4244c-.8082-.8082-2.02-2.4244-3.2324-3.6365a31.1344,31.1344,0,0,0-8.4853-5.6568,26.9,26.9,0,0,0-20.2029-.4041c-6.8691,2.4244-12.5259,8.0812-15.7583,14.95a12.1019,12.1019,0,0,1-1.6162,3.2324,10.1319,10.1319,0,0,1-1.6162,2.8285,24.2987,24.2987,0,0,1-3.6365,5.2527,42.0229,42.0229,0,0,1-22.2233,14.95c-9.6973,2.8285-20.607,3.6365-30.7084.8082a50.56,50.56,0,0,1-26.6679-18.5867c-.8082-.8082-2.4244-3.2324-4.0406-4.8488a23.5394,23.5394,0,0,0-6.0609-4.4446,26.47,26.47,0,0,0-28.6882,2.02,25.2536,25.2536,0,0,0-9.2933,12.1218c-2.4244,6.8691-4.4447,14.1421-6.8691,21.0111s-17.7785,50.1033-23.0314,65.0535-10.91,30.3044-17.3744,45.2546c-12.93,30.3044-29.0923,61.0129-51.72,88.0848a226.9473,226.9473,0,0,1-39.1938,36.7694c-6.869,4.8487-14.5461,9.2933-22.2232,10.91a34.0192,34.0192,0,0,1-10.91.8082,21.3229,21.3229,0,0,1-8.8894-3.2325c-2.8284-1.6162-4.8487-4.4446-6.869-7.6771-.8082-1.6162-2.02-3.2324-2.4244-5.2527l-1.2121-2.8284a38.1005,38.1005,0,0,1-1.2121-3.6365,228.5776,228.5776,0,0,0-11.3136-29.0923c-8.4853-18.9908-18.5868-37.5774-29.0923-55.76-2.4244-4.4446-11.7177-20.2029-11.7177-20.2029a48.2328,48.2328,0,0,1-3.2324-6.465,181.1275,181.1275,0,0,1-10.91-27.88c-2.8284-9.6974-5.2527-19.3948-6.0608-29.4962a77.8555,77.8555,0,0,1,0-19.3948,124.7554,124.7554,0,0,0,17.3744.4041c7.2731-.4041,14.5462-.8082,22.2233-2.4244s15.3542-4.0406,23.4353-10.5056a34.8884,34.8884,0,0,0,5.2527-5.6568q1.2123-1.8181,2.4244-3.6365a23.8021,23.8021,0,0,0,1.6162-3.2324,28.1151,28.1151,0,0,0,1.6162-18.1826,23.9457,23.9457,0,0,0-10.91-14.1421,18.8768,18.8768,0,0,0-4.0406-2.02c-1.2121-.8081-2.4244-.8081-3.6365-1.2121a37.829,37.829,0,0,0-6.4649-1.6162,73.38,73.38,0,0,0-23.0314,0q-3.03.6061-6.0609,1.2121a27.1216,27.1216,0,0,0-6.0609,2.4244c-3.2324,1.6162-6.8691,3.2324-10.1015,5.2527a57.3412,57.3412,0,0,0-16.5664,16.1624,47.6182,47.6182,0,0,0-4.4447,7.677c-.8081-.404-2.02-.404-2.8284-1.2121a44.8908,44.8908,0,0,1-6.465-2.8284c-16.1624-8.4853-27.476-26.6679-32.3247-46.4668a100.37,100.37,0,0,1-2.4244-31.1126,49.5,49.5,0,0,0,.8082-7.6771,65.6762,65.6762,0,0,1,1.6162-7.677c1.6162-4.8488,2.8285-10.1015,5.2527-14.95,2.02-4.8487,4.8488-9.2933,7.273-14.142,3.2324-4.4447,6.0609-8.8894,9.6974-12.5259a111.3983,111.3983,0,0,1,24.6476-21.0111c18.5867-12.1217,40.4059-18.9908,63.0332-22.6273a179.5968,179.5968,0,0,1,16.97-1.2122s42.83-.8082,55.3561-.8082c24.2435,0,48.083,1.6162,69.4982,8.0812l7.6771,2.8284c2.4243,1.2122,4.8487,2.02,7.273,3.2324l7.273,3.6365,8.0812,4.8488a139.4679,139.4679,0,0,0,17.3744,9.2933,90.7027,90.7027,0,0,0,21.0111,6.465,93.1133,93.1133,0,0,0,21.0111,1.2121c6.465,0,12.93-.8082,19.3948-1.2121,12.93-1.6162,25.4557-4.0406,38.3856-8.8894a91.739,91.739,0,0,0,18.9908-9.2933,63.9425,63.9425,0,0,0,16.97-16.1623,51.0163,51.0163,0,0,0,8.0812-23.0314,74.4132,74.4132,0,0,0-.8082-21.4151c-2.02-13.3339-6.4649-25.4556-11.3136-36.7694s-10.5055-22.2232-16.1623-32.7287-11.7177-20.6071-17.3745-30.3044a153.7772,153.7772,0,0,0-23.0314-30.3045,107.4313,107.4313,0,0,0-31.9206-22.2232,64.6461,64.6461,0,0,0-20.2029-5.2527c-7.2731-.4041-14.5462,0-21.4151,2.4244-1.6162.8081-3.6365,1.2121-5.2527,2.02l-4.8488,2.4244c-3.2324,1.6162-6.0609,4.0405-8.8893,6.0608-1.6162,1.2122-2.4244,2.4244-4.0406,3.6365a36.4354,36.4354,0,0,0-3.6365,4.0406,66.4351,66.4351,0,0,0-5.6568,8.8894c-6.0609,12.1217-8.4853,23.8394-10.91,34.749s-4.4447,21.0111-8.0812,29.4963c-.8082,2.4244-2.02,4.0406-2.8285,6.0609a59.1007,59.1007,0,0,1-3.6365,5.2527,46.091,46.091,0,0,1-4.4447,4.4446,10.709,10.709,0,0,1-2.4243,2.02l-1.2122.8082-.8081.8082-.8082.4041h-.4041l-.4041-.4041c0-.8082-.8081-2.8285-.8081-5.2527-.8082-8.8894,0-18.9908.8081-29.0923l.8082-7.6771a59.7543,59.7543,0,0,0,.4041-8.8894,92.8313,92.8313,0,0,0-2.02-18.1826,57.1447,57.1447,0,0,0-7.273-18.1826,35.02,35.02,0,0,0-18.1827-14.5462c-4.04-1.2121-8.8893-2.02-12.93-1.2121q-3.03.6062-6.0609,1.2121c-1.6162.8082-3.6365,1.2121-5.2527,2.4244a59.9356,59.9356,0,0,0-15.3542,12.1218,96.6141,96.6141,0,0,0-10.1014,13.3339,10.5918,10.5918,0,0,0-2.02,3.6365l-2.4244,4.0405c-1.6162,2.8285-2.4244,5.2528-3.6365,7.6771-4.0406,10.1015-6.465,19.7989-9.2933,28.6882s-5.6568,17.3745-9.6974,23.0314l-1.6162,2.02-1.6162,1.6162a10.895,10.895,0,0,1-3.2324,2.8285c-2.4244,1.2121-4.4447,2.4244-7.273,2.8285-5.6568.8081-14.1421-1.2122-21.8192-3.6366-15.3542-5.2527-30.7085-13.7379-42.4262-24.2435a19.1552,19.1552,0,0,1-4.0406-4.0406,36.4273,36.4273,0,0,1-3.6365-4.0406c-.404-.8081-1.2121-1.2121-1.6162-2.02l-1.2121-1.6163a1.4108,1.4108,0,0,0-.4041-.8081v-1.2123a16.6622,16.6622,0,0,1,1.6162-6.0609,34.4788,34.4788,0,0,1,5.6568-8.4852c9.2933-11.3136,22.2233-21.4151,34.7491-29.0923,3.2324-2.02,6.465-3.6365,9.2933-5.2527a27.8549,27.8549,0,0,1,4.0406-1.6162c2.02-.8082,4.0406-1.2121,6.0609-2.02a70.526,70.526,0,0,0,12.5258-6.0609,33.6151,33.6151,0,0,0,11.3136-11.3136,35.2916,35.2916,0,0,0,4.4447-14.95c.4041-4.4447.4041-8.4853.4041-12.5259,0-3.6365-.4041-13.7379-.4041-13.7379v-1.6162c0-1.2122.4041-2.02.4041-3.2325,1.2121-4.4446,4.8487-9.2933,9.2933-13.7379s9.2933-8.8894,14.5461-13.3339,10.5056-8.8894,15.3542-14.95a36.1408,36.1408,0,0,0,6.465-10.1015c1.6162-4.0406,2.8284-8.8894,2.4243-13.3339,0-1.2121-.404-2.4244-.404-3.2324,0-1.2121-.8082-2.4244-1.2122-4.0406-1.2121-2.4244-2.4243-4.4447-4.0406-5.6568a45.284,45.284,0,0,0-8.4852-7.273,114.0821,114.0821,0,0,0-16.97-8.8894c-11.3136-4.4446-22.2233-7.677-32.3247-10.91-10.5056-3.2324-20.203-4.8487-29.9-6.465a228.6516,228.6516,0,0,0-27.0719-2.8284c-12.1218-.8082-8.0812-.4041-9.2933-.4041h-3.6365c-19.3948,0-33.941,4.0406-34.7491,6.869-.4041.8082,3.6365.8082,6.0609.8082a144.5362,144.5362,0,0,1,24.6476,2.02c1.6162.4041,14.142,2.02,14.142,2.02a483.6693,483.6693,0,0,1,48.083,10.1015c7.6771,2.02,15.7583,4.0406,23.4353,6.869a149.8982,149.8982,0,0,1,21.4151,10.1015,84.6727,84.6727,0,0,1,8.8894,6.0609c2.4243,2.02,4.0405,4.4446,3.6365,4.8487.404,2.02,0,3.6365-1.2122,6.0609a31.1891,31.1891,0,0,1-6.0609,7.6771c-5.2527,5.2527-11.7176,10.1015-18.5867,15.7583S1421.3,201.8425,1415.24,211.136c-2.8285,4.8487-5.2527,10.5055-5.2527,16.9705v13.738a109.6884,109.6884,0,0,1-.4041,11.7176,22.7909,22.7909,0,0,1-2.02,7.273,13.21,13.21,0,0,1-5.6568,4.4447,58.4554,58.4554,0,0,1-10.1015,4.0406l-3.2324,1.2121a12.1031,12.1031,0,0,0-4.0406,1.6162,35.8184,35.8184,0,0,0-6.869,3.2325,77.7194,77.7194,0,0,0-12.5259,7.273c-8.0812,5.2527-15.7583,10.5055-23.0314,17.3744-7.273,6.465-14.5461,13.3339-20.2029,23.84-2.8285,5.2527-5.2527,11.3136-4.8488,19.7988a16.2154,16.2154,0,0,0,1.2121,6.0609,32.7143,32.7143,0,0,0,2.4244,5.2527l2.4244,4.0406q1.2123,1.8182,2.4244,3.6365c6.869,8.8894,14.95,15.3542,23.4353,21.0111a172.9539,172.9539,0,0,0,26.6679,14.95c9.6974,4.4446,19.3948,8.0811,31.1126,9.6973a16.5723,16.5723,0,0,0,4.4447.4041c1.6162,0,3.2324.4041,4.8487,0,3.6365-.4041,6.8691-.4041,10.5056-2.02,3.6365-.8081,6.869-2.8284,10.1015-4.4446a30.8432,30.8432,0,0,0,4.4446-3.2325c1.2122-1.2121,2.8285-2.02,4.0406-3.6365,9.2933-10.1014,13.738-21.0111,17.3745-31.1125s6.0609-20.203,9.2933-29.0923c.8082-2.02,1.6162-4.4447,2.4244-6.465l1.2121-2.8284,1.2121-2.4244c.4041-.8082,1.2122-2.02,1.6162-2.8285l2.02-2.8284a59.4194,59.4194,0,0,1,4.0406-5.2528c2.8285-3.2324,5.6568-6.4649,8.4853-8.0811,1.2121-.8082,2.4244-1.6162,3.2324-1.6162.8082-.4041,1.2121,0,1.6162-.4041.4041.4041,1.2121.4041,2.02.8081a6.8609,6.8609,0,0,1,2.4244,2.4244c2.02,2.02,3.2324,6.0609,4.4446,10.1015s1.6163,8.8893,2.02,12.93a49.0348,49.0348,0,0,1-.404,7.273c0,2.8285-.4041,5.6568-.4041,8.4853-.4041,5.6568-.4041,11.7177-.4041,17.7785a113.9454,113.9454,0,0,0,1.6162,19.3948l.4041,1.2121.8082,3.2325c0,.404.404,1.2121.404,1.6162a20.5117,20.5117,0,0,0,3.6365,7.273,21.0841,21.0841,0,0,0,12.93,8.8893,26.873,26.873,0,0,0,15.7582-2.8284,104.6285,104.6285,0,0,0,10.1015-6.8691,68.7631,68.7631,0,0,0,7.6771-7.6771,42.31,42.31,0,0,0,3.2324-4.4447c.8082-1.6162,2.02-2.8284,2.8285-4.4446a97.1088,97.1088,0,0,0,4.4446-9.2933,24.7261,24.7261,0,0,1,2.02-4.8488l1.6163-4.8487c3.6365-12.5259,5.6567-24.6476,8.4852-35.5572.8082-2.8284,1.6162-5.2527,2.4244-7.677,1.2121-2.4244,2.02-4.8488,3.2324-6.8691a37.2142,37.2142,0,0,1,8.4853-10.5055c.8081-.4041,1.6162-1.2122,2.8284-2.02a23.8318,23.8318,0,0,0,3.2324-1.6162,19.9549,19.9549,0,0,1,6.465-2.02,29.7516,29.7516,0,0,1,13.3339.404,6.5173,6.5173,0,0,1,3.6365,1.2122l3.6365,1.2121c2.4244,1.2121,4.8488,2.02,6.8691,3.6365a96.6164,96.6164,0,0,1,13.3338,10.1015,122.7179,122.7179,0,0,1,22.2233,27.4759c6.869,12.1218,13.738,23.4354,19.7988,35.1532s12.1218,23.8394,16.5665,36.3653a160.0178,160.0178,0,0,1,5.2527,18.5867c1.2121,6.0609,1.6162,12.1218.8081,16.9705a34.2168,34.2168,0,0,1-1.6162,6.8691,6.5129,6.5129,0,0,1-1.6162,2.8284,17.1108,17.1108,0,0,0-2.02,2.8285,41.2834,41.2834,0,0,1-13.3339,9.2933c-11.3136,5.2527-25.0516,8.4852-39.1937,10.1014a188.5218,188.5218,0,0,1-21.0111,1.2122,54.3953,54.3953,0,0,1-18.5867-2.8285c-5.6568-2.02-11.7177-5.2527-18.5868-9.2933-3.2324-2.02-6.869-4.0406-10.1014-6.0609a113.036,113.036,0,0,0-12.1218-6.0609c-16.5664-7.273-33.9409-10.91-51.3155-12.93a369.0714,369.0714,0,0,0-51.7195-2.02c-8.4852,0-46.4667.8082-50.9114.8082-17.7786.8082-34.7491,4.4447-51.3155,9.6974a169.6811,169.6811,0,0,0-46.0627,23.0314A139.89,139.89,0,0,0,1289.981,507.31a122.9945,122.9945,0,0,0-18.9908,46.4667c-3.2324,16.5665-2.4244,33.1329.8082,48.8912C1277.0511,619.2348,1283.516,634.589,1293.6175,647.5189Zm81.2158,3.2324a59.65,59.65,0,0,1,10.91-6.4649,52.6679,52.6679,0,0,1,5.2527-1.2122,51.9292,51.9292,0,0,1,12.93,0,7.4909,7.4909,0,0,1,2.8285.8082c.4041,0,.8082.4041,1.2121.4041h.4041l.4041.4041h0v.4041a1.4108,1.4108,0,0,1-.4041.8081.3958.3958,0,0,1-.4041.4041,5.8205,5.8205,0,0,1-2.8284,2.4244,35.9175,35.9175,0,0,1-11.7177,4.0406,130.7288,130.7288,0,0,1-22.2233,1.6162A7.9283,7.9283,0,0,1,1374.8333,650.7513Z"></path>
  </g>
</svg>
